<svg width="24" height="24" viewBox="0 0 24 24" fill="none" xmlns="http://www.w3.org/2000/svg">
<path d="M23.3333 8.00016C23.3333 7.3335 22.6667 5.3335 20.6667 5.3335H6.26733C5.34933 5.3335 4.074 6.5275 3.39933 8.00016L1.33333 11.3335C0.364667 11.7328 0 12.8875 0 14.0002V18.0002C0 18.7074 0.280952 19.3857 0.781049 19.8858C1.28115 20.3859 1.95942 20.6668 2.66667 20.6668H21.3333C22.0406 20.6668 22.7189 20.3859 23.219 19.8858C23.719 19.3857 24 18.7074 24 18.0002V12.6668C24 11.9822 23.3333 8.00016 23.3333 8.00016Z" fill="#CCD6DD"/>
<path d="M5.99924 16.6665C4.95489 16.6669 3.95216 17.076 3.20552 17.8062C2.45887 18.5364 2.02759 19.5298 2.00391 20.5738C2.21724 20.6278 2.43591 20.6665 2.66591 20.6665H9.99924C9.99924 19.6056 9.57781 18.5882 8.82767 17.8381C8.07752 17.0879 7.06011 16.6665 5.99924 16.6665ZM21.9946 20.5732C21.9709 19.5292 21.5396 18.5359 20.7929 17.8058C20.0463 17.0757 19.0435 16.6668 17.9992 16.6665C15.7912 16.6665 13.9992 18.4578 13.9992 20.6665H21.3326C21.5626 20.6665 21.7819 20.6278 21.9946 20.5732Z" fill="#E1E8ED"/>
<path d="M6.00065 23.3333C7.47341 23.3333 8.66732 22.1394 8.66732 20.6667C8.66732 19.1939 7.47341 18 6.00065 18C4.52789 18 3.33398 19.1939 3.33398 20.6667C3.33398 22.1394 4.52789 23.3333 6.00065 23.3333Z" fill="#292F33"/>
<path d="M5.99935 22.0002C6.73573 22.0002 7.33268 21.4032 7.33268 20.6668C7.33268 19.9304 6.73573 19.3335 5.99935 19.3335C5.26297 19.3335 4.66602 19.9304 4.66602 20.6668C4.66602 21.4032 5.26297 22.0002 5.99935 22.0002Z" fill="#99AAB5"/>
<path d="M18.0007 23.3333C19.4734 23.3333 20.6673 22.1394 20.6673 20.6667C20.6673 19.1939 19.4734 18 18.0007 18C16.5279 18 15.334 19.1939 15.334 20.6667C15.334 22.1394 16.5279 23.3333 18.0007 23.3333Z" fill="#292F33"/>
<path d="M17.9993 22.0002C18.7357 22.0002 19.3327 21.4032 19.3327 20.6668C19.3327 19.9304 18.7357 19.3335 17.9993 19.3335C17.263 19.3335 16.666 19.9304 16.666 20.6668C16.666 21.4032 17.263 22.0002 17.9993 22.0002Z" fill="#99AAB5"/>
<path d="M0 13.9998H24V15.9998H0V13.9998ZM20.6667 8.6665H18.6667V6.6665H17.3333V8.6665H15.3333V9.99984H17.3333V11.9998H18.6667V9.99984H20.6667V8.6665Z" fill="#DD2E44"/>
<path d="M5.33268 6.6665H8.66602V11.3332H2.66602L5.33268 6.6665Z" fill="#55ACEE"/>
<path d="M9.99935 4.3335C9.99935 4.59871 9.89399 4.85307 9.70646 5.0406C9.51892 5.22814 9.26457 5.3335 8.99935 5.3335H7.66602C7.4008 5.3335 7.14645 5.22814 6.95891 5.0406C6.77137 4.85307 6.66602 4.59871 6.66602 4.3335C6.66602 4.06828 6.77137 3.81393 6.95891 3.62639C7.14645 3.43885 7.4008 3.3335 7.66602 3.3335H8.99935C9.26457 3.3335 9.51892 3.43885 9.70646 3.62639C9.89399 3.81393 9.99935 4.06828 9.99935 4.3335Z" fill="#DD2E44"/>
<path d="M11.9993 4.3335C11.9993 4.59871 11.894 4.85307 11.7065 5.0406C11.5189 5.22814 11.2646 5.3335 10.9993 5.3335H9.66602C9.4008 5.3335 9.14645 5.22814 8.95891 5.0406C8.77137 4.85307 8.66602 4.59871 8.66602 4.3335C8.66602 4.06828 8.77137 3.81393 8.95891 3.62639C9.14645 3.43885 9.4008 3.3335 9.66602 3.3335H10.9993C11.2646 3.3335 11.5189 3.43885 11.7065 3.62639C11.894 3.81393 11.9993 4.06828 11.9993 4.3335Z" fill="#55ACEE"/>
</svg>
