<svg width="310" height="310" viewBox="0 0 310 310" fill="none" xmlns="http://www.w3.org/2000/svg">
<path d="M293.092 155.02C293.105 48.7175 178.038 -17.736 85.9706 35.4036C24.4561 70.9085 -0.0931625 147.285 29.2136 211.982H280.788C288.91 194.092 293.106 174.668 293.092 155.02Z" fill="#B8ECFF"/>
<path d="M29.2129 211.982C73.0763 308.813 205.313 321.849 267.24 235.447C272.514 228.089 277.051 220.229 280.787 211.982H29.2129Z" fill="#ADC4D9"/>
<path d="M20.3613 211.982H289.638" stroke="#45413C" stroke-linecap="round" stroke-linejoin="round"/>
<path d="M4.82617 211.982H13.4569" stroke="#45413C" stroke-linecap="round" stroke-linejoin="round"/>
<path d="M296.543 211.982H305.174" stroke="#45413C" stroke-linecap="round" stroke-linejoin="round"/>
<path d="M203.332 248.231H228.04" stroke="#E0E0E0" stroke-linecap="round"/>
<path d="M188.918 248.231H195.094" stroke="#E0E0E0" stroke-linecap="round"/>
<path d="M178.623 248.231H180.684" stroke="#E0E0E0" stroke-linecap="round"/>
<path d="M138.922 274.123H163.63" stroke="#E0E0E0" stroke-linecap="round"/>
<path d="M124.514 274.123H130.69" stroke="#E0E0E0" stroke-linecap="round"/>
<path d="M114.219 274.123H116.276" stroke="#E0E0E0" stroke-linecap="round"/>
<path opacity="0.15" d="M28.8711 239.652C28.8711 244.303 133.159 247.21 216.589 244.885C255.308 243.805 279.161 241.811 279.161 239.652C279.161 235.002 174.873 232.095 91.4437 234.42C52.7234 235.5 28.8711 237.494 28.8711 239.652Z" fill="#45413C"/>
<path d="M107.704 221.497H41.4205V198.453H21.2695V177.978C21.2686 173.109 24.6501 168.894 29.403 167.838L44.2477 164.541C46.1768 164.113 47.9432 163.143 49.3397 161.745L72.9639 138.121C74.9129 136.174 77.5553 135.08 80.3103 135.08H107.704V221.497Z" fill="white" stroke="#45413C" stroke-linecap="round" stroke-linejoin="round"/>
<path d="M58.7168 209.973H107.687V221.497H58.7168V209.973Z" fill="#E0E0E0"/>
<path d="M58.7168 209.973H107.687V215.735H58.7168V209.973Z" fill="white"/>
<path d="M58.7168 209.973H107.687V221.497H58.7168V209.973Z" stroke="#45413C" stroke-linecap="round" stroke-linejoin="round"/>
<path d="M12.6289 207.094C12.6289 211.861 16.4934 215.724 21.2596 215.725H41.4211V198.453H18.3875C15.2072 198.453 12.6289 201.031 12.6289 204.211V207.094Z" fill="#87898C"/>
<path d="M18.3875 198.453H41.4211V205.654H18.3875C15.958 205.666 13.8019 207.213 13.0124 209.511C12.7703 208.727 12.6413 207.914 12.6289 207.094V204.211C12.6289 201.031 15.2072 198.453 18.3875 198.453Z" fill="#87898C"/>
<path d="M12.6289 207.094C12.6289 211.861 16.4934 215.724 21.2596 215.725H41.4211V198.453H18.3875C15.2072 198.453 12.6289 201.031 12.6289 204.211V207.094Z" stroke="#45413C" stroke-linecap="round" stroke-linejoin="round"/>
<path d="M107.703 97.6258H283.424C289.787 97.6277 294.946 102.786 294.947 109.149V209.977C294.946 216.34 289.787 221.497 283.424 221.497H110.12C108.785 221.497 107.703 220.415 107.703 219.08V97.6258Z" fill="white" stroke="#45413C" stroke-linecap="round" stroke-linejoin="round"/>
<path d="M182.584 218.618C182.584 234.14 199.388 243.842 212.831 236.081C219.07 232.479 222.913 225.822 222.913 218.618C222.913 203.095 206.109 193.393 192.666 201.155C186.427 204.757 182.584 211.413 182.584 218.618Z" fill="#45413C"/>
<path d="M202.748 207.094C193.282 207.099 185.095 213.69 183.07 222.937C179.741 207.783 194.064 194.708 208.852 199.401C217.225 202.059 222.912 209.833 222.909 218.618C222.903 220.071 222.739 221.519 222.419 222.937C220.395 213.692 212.211 207.102 202.748 207.094Z" fill="#87898C"/>
<path d="M182.584 218.618C182.584 234.14 199.388 243.842 212.831 236.081C219.07 232.479 222.913 225.822 222.913 218.618C222.913 203.095 206.109 193.393 192.666 201.155C186.427 204.757 182.584 211.413 182.584 218.618Z" stroke="#45413C" stroke-linecap="round" stroke-linejoin="round"/>
<path d="M194.107 218.618C194.107 225.261 201.299 229.414 207.053 226.092C212.807 222.77 212.807 214.465 207.053 211.143C205.741 210.386 204.253 209.987 202.738 209.987C197.971 209.987 194.107 213.851 194.107 218.618Z" fill="#E0E0E0"/>
<path d="M202.749 217.161C199.377 217.167 196.318 219.137 194.916 222.205C192.127 216.174 196.911 209.386 203.528 209.986C209.472 210.524 213.088 216.788 210.582 222.205C209.181 219.137 206.121 217.167 202.749 217.161Z" fill="#F8F8F8"/>
<path d="M194.107 218.618C194.107 225.261 201.299 229.414 207.053 226.092C212.807 222.77 212.807 214.465 207.053 211.143C205.741 210.386 204.253 209.987 202.738 209.987C197.971 209.987 194.107 213.851 194.107 218.618Z" stroke="#45413C" stroke-linecap="round" stroke-linejoin="round"/>
<path d="M21.2695 218.618C21.2695 234.14 38.0734 243.842 51.5165 236.081C57.7556 232.479 61.599 225.822 61.599 218.618C61.599 203.095 44.7948 193.393 31.3517 201.155C25.1129 204.757 21.2695 211.413 21.2695 218.618Z" fill="#45413C"/>
<path d="M41.4205 207.094C31.9547 207.099 23.7676 213.69 21.7423 222.937C18.4129 207.783 32.7362 194.708 47.5241 199.401C55.8972 202.059 61.5845 209.833 61.5817 218.618C61.5736 220.071 61.4093 221.519 61.0916 222.937C59.0669 213.692 50.8836 207.102 41.4205 207.094Z" fill="#87898C"/>
<path d="M21.2695 218.618C21.2695 234.14 38.0734 243.842 51.5165 236.081C57.7556 232.479 61.599 225.822 61.599 218.618C61.599 203.095 44.7948 193.393 31.3517 201.155C25.1129 204.757 21.2695 211.413 21.2695 218.618Z" stroke="#45413C" stroke-linecap="round" stroke-linejoin="round"/>
<path d="M32.793 218.618C32.793 225.27 39.9936 229.427 45.7544 226.101C48.4281 224.557 50.0749 221.705 50.0749 218.618C50.0749 211.966 42.8742 207.808 37.1134 211.134C34.44 212.678 32.793 215.531 32.793 218.618Z" fill="#E0E0E0"/>
<path d="M41.4211 217.161C38.0477 217.166 34.9864 219.136 33.5843 222.205C30.798 216.173 35.5854 209.387 42.202 209.99C48.1419 210.531 51.7559 216.79 49.2542 222.205C47.8527 219.137 44.7933 217.167 41.4211 217.161Z" fill="#F8F8F8"/>
<path d="M32.793 218.618C32.793 225.27 39.9936 229.427 45.7544 226.101C48.4281 224.557 50.0748 221.705 50.0748 218.618C50.0748 211.966 42.8742 207.808 37.1134 211.134C34.44 212.678 32.793 215.531 32.793 218.618Z" stroke="#45413C" stroke-linecap="round" stroke-linejoin="round"/>
<path d="M90.4079 146.6C93.5881 146.6 96.1661 149.178 96.1661 152.358V160.989C96.1642 164.174 93.5823 166.754 90.3973 166.754H70.2396C66.5642 166.752 64.2696 162.772 66.1091 159.59C66.3168 159.231 66.5704 158.9 66.8634 158.607L76.8438 148.63C78.1483 147.325 79.9178 146.591 81.7632 146.589L90.4079 146.6Z" fill="#00B8F0"/>
<path d="M90.4074 146.6H81.7767C79.9331 146.615 78.1677 147.347 76.8536 148.64L66.8765 158.617C65.8681 159.623 65.3619 161.027 65.4958 162.446C65.5389 162.921 65.6554 163.387 65.8408 163.827C66.5805 165.609 68.3199 166.771 70.2493 166.771H73.1286L92.7687 147.135C92.029 146.79 91.2236 146.607 90.4074 146.6Z" fill="#4ACFFF"/>
<path d="M96.166 178.288H90.4043" stroke="#45413C" stroke-linecap="round" stroke-linejoin="round"/>
<path d="M107.704 97.6292V112.032H96.166V109.153C96.166 102.783 101.334 97.6218 107.704 97.6292Z" fill="white" stroke="#45413C" stroke-linecap="round" stroke-linejoin="round"/>
<path d="M107.704 123.556H101.928C98.7452 123.554 96.166 120.973 96.166 117.791V112.032H107.704V123.556Z" fill="#FF6242" stroke="#45413C" stroke-linecap="round" stroke-linejoin="round"/>
<path d="M254.601 135.08H277.649C280.829 135.08 283.407 137.658 283.407 140.838V198.453C283.407 201.635 280.827 204.215 277.645 204.215H254.598C251.415 204.215 248.836 201.635 248.836 198.453V140.838C248.838 137.656 251.419 135.078 254.601 135.08Z" stroke="#45413C" stroke-linecap="round" stroke-linejoin="round"/>
<path d="M271.883 166.764V172.526" stroke="#45413C" stroke-linecap="round" stroke-linejoin="round"/>
<path d="M205.199 150.791C204.083 150.066 203.764 148.575 204.485 147.456L206.556 144.252C207.281 143.137 208.772 142.817 209.891 143.538L215.708 147.301V140.372C215.708 139.037 216.79 137.955 218.124 137.955H221.939C223.274 137.955 224.356 139.037 224.356 140.372V147.301L230.173 143.538C231.292 142.815 232.786 143.134 233.511 144.252L235.583 147.456C236.303 148.575 235.984 150.066 234.868 150.791L227.991 155.244L234.868 159.694C235.984 160.419 236.303 161.911 235.583 163.029L233.511 166.233C232.786 167.351 231.292 167.671 230.173 166.947L224.356 163.185V170.113C224.356 171.448 223.274 172.53 221.939 172.53H218.124C216.79 172.53 215.708 171.448 215.708 170.113V163.185L209.891 166.947C208.771 167.671 207.278 167.351 206.552 166.233L204.481 163.029C203.76 161.911 204.08 160.419 205.196 159.694L212.076 155.244L205.199 150.791Z" fill="#4ACFFF" stroke="#45413C" stroke-linecap="round" stroke-linejoin="round"/>
<path d="M173.314 206.939L120.705 97.6292H160.524L202.03 186.967C189.316 187.251 178.005 195.117 173.314 206.939Z" fill="#FF6242"/>
<path d="M124.865 106.27L120.705 97.6292H160.52L164.535 106.27H124.865Z" fill="#FF6242"/>
<path d="M173.314 206.939L120.705 97.6292H160.524L202.03 186.967C189.316 187.251 178.005 195.117 173.314 206.939Z" stroke="#45413C" stroke-linecap="round" stroke-linejoin="round"/>
<path d="M119.21 221.497H159.539V140.658C159.539 137.579 157.044 135.082 153.964 135.08H124.965C121.783 135.078 119.203 137.656 119.203 140.838L119.21 221.497Z" fill="white" stroke="#45413C" stroke-linecap="round" stroke-linejoin="round"/>
<path d="M148.016 175.405V181.167" stroke="#45413C" stroke-linecap="round" stroke-linejoin="round"/>
<path d="M130.734 146.6H148.02V163.882H130.734V146.6Z" fill="#87898C"/>
<path d="M142.255 146.6H136.496C133.314 146.6 130.734 149.179 130.734 152.362V158.127C130.731 159.655 131.338 161.121 132.419 162.201L146.328 148.291C145.25 147.208 143.784 146.599 142.255 146.6Z" fill="#BDBEC0"/>
<path d="M32.7898 198.453H21.2695V184.05H27.0312C30.2115 184.05 32.7898 186.628 32.7898 189.808V198.453Z" fill="#FFE500" stroke="#45413C" stroke-linecap="round" stroke-linejoin="round"/>
<path d="M130.734 146.6H148.02V163.882H130.734V146.6Z" stroke="#45413C" stroke-linecap="round" stroke-linejoin="round"/>
<path d="M90.4079 146.6C93.5881 146.6 96.1661 149.178 96.1661 152.358V160.989C96.1642 164.174 93.5823 166.754 90.3973 166.754H70.2396C66.5642 166.752 64.2696 162.772 66.1091 159.59C66.3168 159.231 66.5704 158.9 66.8634 158.607L76.8438 148.63C78.1483 147.325 79.9178 146.591 81.7632 146.589L90.4079 146.6Z" stroke="#45413C" stroke-linecap="round" stroke-linejoin="round"/>
<path d="M222.624 221.497C225.278 206.197 210.375 193.761 195.798 199.113C186.648 202.472 181.208 211.893 182.874 221.497H171.206C171.123 220.548 171.061 219.588 171.061 218.618C171.061 194.224 197.468 178.978 218.593 191.175C228.398 196.835 234.438 207.296 234.438 218.618C234.438 219.588 234.379 220.548 234.292 221.497H222.624Z" fill="#E0E0E0"/>
<path d="M234.292 221.497C232.076 197.215 204.404 184.438 184.484 198.499C176.903 203.85 172.049 212.256 171.206 221.497C171.123 220.548 171.061 219.588 171.061 218.618C171.061 194.224 197.468 178.978 218.593 191.175C228.398 196.835 234.438 207.296 234.438 218.618C234.438 219.588 234.379 220.548 234.292 221.497Z" fill="white"/>
<path d="M222.624 221.497C225.278 206.197 210.375 193.761 195.798 199.113C186.648 202.472 181.208 211.893 182.874 221.497H171.206C171.123 220.548 171.061 219.588 171.061 218.618C171.061 194.224 197.468 178.978 218.593 191.175C228.398 196.835 234.438 207.296 234.438 218.618C234.438 219.588 234.379 220.548 234.293 221.497H222.624Z" stroke="#45413C" stroke-linecap="round" stroke-linejoin="round"/>
<path d="M156.656 117.794C156.656 122.23 151.855 125.002 148.014 122.784C144.172 120.566 144.172 115.022 148.014 112.804C148.891 112.298 149.886 112.032 150.898 112.032C154.08 112.032 156.659 114.612 156.656 117.794Z" fill="#F8F8F8"/>
<path d="M150.898 117.794C152.921 117.817 154.778 118.914 155.776 120.673C156.328 119.812 156.632 118.816 156.657 117.794C156.766 113.36 152.033 110.471 148.139 112.594C146.242 113.627 145.083 115.635 145.137 117.794C145.162 118.816 145.468 119.813 146.02 120.673C147.017 118.913 148.875 117.816 150.898 117.794Z" fill="white"/>
<path d="M156.656 117.794C156.656 122.23 151.855 125.002 148.014 122.784C144.172 120.566 144.172 115.022 148.014 112.804C148.891 112.298 149.886 112.032 150.898 112.032C154.08 112.032 156.659 114.612 156.656 117.794Z" stroke="#45413C"/>
<path d="M240.199 117.794C240.199 122.23 235.398 125.002 231.557 122.784C227.715 120.566 227.715 115.022 231.557 112.804C232.433 112.298 233.426 112.032 234.438 112.032C237.62 112.032 240.199 114.612 240.199 117.794Z" fill="#F8F8F8"/>
<path d="M234.438 117.794C236.46 117.817 238.318 118.914 239.316 120.673C239.868 119.813 240.174 118.816 240.199 117.794C240.199 113.359 235.398 110.586 231.557 112.804C229.774 113.834 228.676 115.736 228.676 117.794C228.701 118.816 229.007 119.813 229.56 120.673C230.557 118.913 232.415 117.816 234.438 117.794Z" fill="white"/>
<path d="M240.199 117.794C240.199 122.23 235.398 125.002 231.557 122.784C227.715 120.566 227.715 115.022 231.557 112.804C232.433 112.298 233.426 112.032 234.438 112.032C237.62 112.032 240.199 114.612 240.199 117.794Z" stroke="#45413C"/>
<path d="M266.121 117.794C266.121 122.23 270.923 125.002 274.764 122.784C276.547 121.755 277.645 119.853 277.645 117.794C277.645 113.359 272.843 110.586 269.002 112.804C267.219 113.834 266.121 115.736 266.121 117.794Z" fill="#FF6242" stroke="#45413C" stroke-linecap="round" stroke-linejoin="round"/>
<path d="M271.883 117.794C273.906 117.816 275.764 118.913 276.761 120.673C277.314 119.813 277.619 118.816 277.645 117.794C277.645 113.359 272.843 110.586 269.002 112.804C267.219 113.834 266.121 115.736 266.121 117.794C266.147 118.816 266.452 119.813 267.005 120.673C268.003 118.914 269.86 117.817 271.883 117.794Z" fill="#FF6242"/>
<path d="M266.121 117.794C266.121 122.23 270.923 125.002 274.764 122.784C276.547 121.755 277.645 119.853 277.645 117.794C277.645 113.359 272.843 110.586 269.002 112.804C267.219 113.834 266.121 115.736 266.121 117.794Z" stroke="#45413C"/>
</svg>
