<svg width="24" height="24" viewBox="0 0 24 24" fill="none" xmlns="http://www.w3.org/2000/svg">
<path d="M2 16.1457V4.99972C2 3.90172 2.886 3.00972 3.982 3.07672C4.959 3.13672 6.113 3.25572 7 3.48872C8.05 3.76572 9.296 4.35572 10.282 4.87672C10.589 5.03972 10.916 5.15172 11.25 5.21572V20.3947C10.9438 20.3277 10.6483 20.2187 10.372 20.0707C9.372 19.5387 8.082 18.9207 7 18.6347C6.123 18.4037 4.984 18.2847 4.015 18.2247C2.906 18.1547 2 17.2577 2 16.1457ZM12.75 20.3947C13.0562 20.3277 13.3517 20.2187 13.628 20.0707C14.628 19.5387 15.918 18.9207 17 18.6347C17.877 18.4037 19.016 18.2847 19.985 18.2247C21.094 18.1547 22 17.2567 22 16.1447V4.93572C22 3.86372 21.154 2.98272 20.082 3.02072C18.953 3.06072 17.547 3.17672 16.5 3.49072C15.592 3.76172 14.535 4.30672 13.674 4.80572C13.3852 4.97244 13.0741 5.09703 12.75 5.17572V20.3947Z" fill="#7C8293"/>
</svg>
