<svg width="16" height="16" viewBox="0 0 16 16" fill="none" xmlns="http://www.w3.org/2000/svg">
<path fill-rule="evenodd" clip-rule="evenodd" d="M4.79857 1.86328C4.39356 1.86328 4.06523 2.19161 4.06523 2.59661V3.32995H3.3319C2.52188 3.32995 1.86523 3.9866 1.86523 4.79661V12.1299C1.86523 12.94 2.52188 13.5966 3.3319 13.5966H12.1319C12.9419 13.5966 13.5986 12.94 13.5986 12.1299V4.79661C13.5986 3.9866 12.9419 3.32995 12.1319 3.32995H11.3986V2.59661C11.3986 2.19161 11.0702 1.86328 10.6652 1.86328C10.2602 1.86328 9.9319 2.19161 9.9319 2.59661V3.32995H5.5319V2.59661C5.5319 2.19161 5.20358 1.86328 4.79857 1.86328ZM4.79857 5.52995C4.39356 5.52995 4.06523 5.85827 4.06523 6.26328C4.06523 6.66829 4.39356 6.99661 4.79857 6.99661H10.6652C11.0702 6.99661 11.3986 6.66829 11.3986 6.26328C11.3986 5.85827 11.0702 5.52995 10.6652 5.52995H4.79857Z" fill="#275DAD"/>
</svg>
