<svg width="20" height="20" viewBox="0 0 20 20" fill="none" xmlns="http://www.w3.org/2000/svg">
<mask id="mask0_2063_597" style="mask-type:luminance" maskUnits="userSpaceOnUse" x="0" y="0" width="20" height="20">
<path d="M20 10C20 15.523 15.523 20 10 20C4.477 20 0 15.523 0 10C0 4.477 4.477 0 10 0C15.523 0 20 4.477 20 10Z" fill="white"/>
<path fill-rule="evenodd" clip-rule="evenodd" d="M10 5.25C10.1989 5.25 10.3897 5.32902 10.5303 5.46967C10.671 5.61032 10.75 5.80109 10.75 6V9.69L13.03 11.97C13.1037 12.0387 13.1628 12.1215 13.2038 12.2135C13.2448 12.3055 13.2668 12.4048 13.2686 12.5055C13.2704 12.6062 13.2518 12.7062 13.2141 12.7996C13.1764 12.893 13.1203 12.9778 13.049 13.049C12.9778 13.1203 12.893 13.1764 12.7996 13.2141C12.7062 13.2518 12.6062 13.2704 12.5055 13.2686C12.4048 13.2668 12.3055 13.2448 12.2135 13.2038C12.1215 13.1628 12.0387 13.1037 11.97 13.03L9.47 10.53C9.32931 10.3895 9.25018 10.1988 9.25 10V6C9.25 5.80109 9.32902 5.61032 9.46967 5.46967C9.61032 5.32902 9.80109 5.25 10 5.25Z" fill="black"/>
</mask>
<g mask="url(#mask0_2063_597)">
<path d="M-2 -2H22V22H-2V-2Z" fill="#7C8293"/>
</g>
</svg>
