<svg width="16" height="16" viewBox="0 0 16 16" fill="none" xmlns="http://www.w3.org/2000/svg">
<mask id="mask0_2351_1583" style="mask-type:luminance" maskUnits="userSpaceOnUse" x="1" y="1" width="14" height="14">
<path d="M14.6673 7.9987C14.6673 11.6807 11.6827 14.6654 8.00065 14.6654C4.31865 14.6654 1.33398 11.6807 1.33398 7.9987C1.33398 4.3167 4.31865 1.33203 8.00065 1.33203C11.6827 1.33203 14.6673 4.3167 14.6673 7.9987Z" fill="white"/>
<path fill-rule="evenodd" clip-rule="evenodd" d="M8 4.83203C8.13261 4.83203 8.25978 4.88471 8.35355 4.97848C8.44732 5.07225 8.5 5.19942 8.5 5.33203V7.79203L10.02 9.31203C10.0691 9.35781 10.1085 9.41301 10.1359 9.47434C10.1632 9.53567 10.1779 9.60188 10.1791 9.66902C10.1802 9.73615 10.1679 9.80284 10.1427 9.8651C10.1176 9.92736 10.0802 9.98391 10.0327 10.0314C9.98521 10.0789 9.92866 10.1163 9.8664 10.1414C9.80414 10.1666 9.73745 10.1789 9.67032 10.1778C9.60318 10.1766 9.53697 10.1619 9.47564 10.1346C9.41431 10.1072 9.35911 10.0678 9.31333 10.0187L7.64667 8.35203C7.55287 8.25835 7.50012 8.13126 7.5 7.9987V5.33203C7.5 5.19942 7.55268 5.07225 7.64645 4.97848C7.74022 4.88471 7.86739 4.83203 8 4.83203Z" fill="black"/>
</mask>
<g mask="url(#mask0_2351_1583)">
<path d="M0 0H16V16H0V0Z" fill="#0085FF"/>
</g>
</svg>
