<svg width="310" height="310" viewBox="0 0 310 310" fill="none" xmlns="http://www.w3.org/2000/svg">
<path d="M279 155C279.003 136.493 274.864 118.22 266.886 101.521C258.907 84.8217 247.292 70.1204 232.892 58.4949C218.492 46.8695 201.672 38.6149 183.666 34.3364C165.66 30.058 146.925 29.8642 128.835 33.7694C110.744 37.6746 93.7576 45.5796 79.1202 56.9047C64.4827 68.2299 52.566 82.6879 44.2439 99.2183C35.9218 115.749 31.4054 133.932 31.0261 152.436C30.6467 170.939 34.4139 189.292 42.0515 206.15H267.955C275.249 190.085 279.015 172.643 279 155Z" fill="#B8ECFF"/>
<path d="M42.0508 206.15C51.8861 227.862 67.7709 246.28 87.8033 259.197C107.836 272.114 131.166 278.984 155.002 278.984C178.838 278.984 202.169 272.114 222.202 259.197C242.234 246.28 258.119 227.862 267.954 206.15H42.0508Z" fill="#DAEDF7"/>
<path d="M34.1035 206.15H275.904" stroke="#45413C" stroke-linecap="round" stroke-linejoin="round"/>
<path d="M20.1523 206.15H27.9023" stroke="#45413C" stroke-linecap="round" stroke-linejoin="round"/>
<path d="M282.104 206.15H289.854" stroke="#45413C" stroke-linecap="round" stroke-linejoin="round"/>
<path d="M66.6152 110.298C66.6152 110.926 66.7389 111.547 66.9792 112.127C67.2194 112.707 67.5716 113.233 68.0155 113.677C68.4594 114.121 68.9864 114.472 69.5664 114.712C70.1463 114.952 70.7678 115.076 71.3954 115.075H298.315C299.582 115.075 300.797 114.572 301.693 113.676C302.589 112.78 303.093 111.565 303.093 110.298V100.75H66.6152V110.298Z" fill="#E0E0E0"/>
<path d="M66.6152 100.744H303.099V107.911H66.6152V100.744Z" fill="white"/>
<path d="M280.169 100.744L283.991 115.075H276.824L273.002 100.744H280.169Z" fill="#BDBEC0"/>
<path d="M239.237 115.075H225.916L239.835 100.744H253.153L239.237 115.075Z" fill="#BDBEC0"/>
<path d="M66.6152 110.298C66.6152 110.926 66.7389 111.547 66.9792 112.127C67.2194 112.707 67.5716 113.233 68.0155 113.677C68.4594 114.121 68.9864 114.472 69.5664 114.712C70.1463 114.952 70.7678 115.076 71.3954 115.075H298.315C299.582 115.075 300.797 114.572 301.693 113.676C302.589 112.78 303.093 111.565 303.093 110.298V100.75H66.6152V110.298Z" stroke="#45413C" stroke-linecap="round" stroke-linejoin="round"/>
<path d="M303.099 100.75L284.979 82.6305C283.908 81.5589 282.637 80.7089 281.238 80.1291C279.838 79.5493 278.338 79.2511 276.823 79.2515H71.3954C70.7677 79.2515 70.1461 79.3751 69.5661 79.6154C68.9862 79.8556 68.4592 80.2077 68.0153 80.6516C67.5714 81.0955 67.2193 81.6224 66.9791 82.2024C66.7389 82.7824 66.6152 83.404 66.6152 84.0317V100.75" stroke="#45413C" stroke-linecap="round" stroke-linejoin="round"/>
<path d="M280.866 79.98L260.102 100.744L238.604 79.2453" stroke="#45413C" stroke-linecap="round" stroke-linejoin="round"/>
<path d="M252.939 79.2453H267.27L276.824 115.075H243.385L252.939 79.2453Z" fill="#E0E0E0"/>
<path d="M238.604 79.2453L217.106 100.744L195.607 79.2453" stroke="#45413C" stroke-linecap="round" stroke-linejoin="round"/>
<path d="M251.025 86.4125L252.938 79.2453H267.269L269.182 86.4125H251.025Z" fill="white"/>
<path d="M265.094 95.17C265.77 95.8248 266.31 96.6064 266.684 97.4702C267.057 98.334 267.257 99.2629 267.271 100.204C267.285 101.145 267.113 102.079 266.766 102.954C266.418 103.829 265.902 104.626 265.246 105.301L255.751 115.075H243.385L246.258 104.29L254.963 95.3281C256.308 94.0043 258.11 93.2493 259.997 93.2198C261.884 93.1904 263.709 93.8888 265.094 95.17Z" fill="#BDBEC0"/>
<path d="M252.939 79.2453H267.27L276.824 115.075H243.385L252.939 79.2453Z" stroke="#45413C" stroke-linecap="round" stroke-linejoin="round"/>
<path d="M186.053 127.019C186.053 125.505 185.755 124.006 185.176 122.607C184.596 121.208 183.747 119.937 182.677 118.866L178.889 115.075H169.331L165.54 118.866C164.469 119.937 163.62 121.208 163.041 122.607C162.462 124.006 162.164 125.505 162.164 127.019V134.187H186.05L186.053 127.019Z" fill="#E0E0E0"/>
<path d="M169.332 115.075H178.889L182.674 118.863C183.746 119.934 184.596 121.206 185.175 122.605C185.755 124.005 186.054 125.505 186.053 127.019V129.41L180.746 124.102C179.556 122.912 177.941 122.243 176.257 122.242H171.964C171.13 122.242 170.304 122.406 169.533 122.726C168.762 123.045 168.062 123.513 167.472 124.102L162.168 129.41V127.019C162.167 123.961 163.38 121.028 165.541 118.863L169.332 115.075Z" fill="#BDBEC0"/>
<path d="M186.053 127.019C186.053 125.505 185.755 124.006 185.176 122.607C184.596 121.208 183.747 119.937 182.677 118.866L178.889 115.075H169.331L165.54 118.866C164.469 119.937 163.62 121.208 163.041 122.607C162.462 124.006 162.164 125.505 162.164 127.019V134.187H186.05L186.053 127.019Z" stroke="#45413C" stroke-linecap="round" stroke-linejoin="round"/>
<path d="M176.498 127.019H171.721" stroke="#45413C" stroke-linecap="round" stroke-linejoin="round"/>
<path d="M255.326 124.632H264.883L274.437 134.187H245.771L255.326 124.632Z" fill="#E0E0E0" stroke="#45413C" stroke-linecap="round" stroke-linejoin="round"/>
<path d="M255.326 115.075H264.88V124.629H255.326V115.075Z" fill="#BDBEC0" stroke="#45413C" stroke-linecap="round" stroke-linejoin="round"/>
<path d="M195.606 79.2453L174.108 100.744L152.609 79.2453" stroke="#45413C" stroke-linecap="round" stroke-linejoin="round"/>
<path d="M263.432 92.5381C263.883 92.9749 264.243 93.4962 264.491 94.0722C264.74 94.6483 264.873 95.2676 264.882 95.895C264.891 96.5224 264.777 97.1454 264.545 97.7284C264.313 98.3115 263.969 98.8432 263.532 99.293L218.6 145.567L211.746 138.908L256.681 92.6373C257.563 91.7294 258.77 91.2089 260.036 91.1903C261.302 91.1717 262.524 91.6565 263.432 92.5381Z" fill="#E0E0E0"/>
<path d="M256.681 92.6373C257.563 91.7284 258.771 91.2074 260.038 91.1888C261.304 91.1702 262.527 91.6555 263.435 92.5381C263.677 92.8131 263.885 93.1159 264.055 93.4402C262.895 93.5084 261.801 94.003 260.983 94.829L216.046 141.1L219.595 144.544L218.6 145.564L211.746 138.908L256.681 92.6373Z" fill="white"/>
<path d="M263.432 92.5381C263.883 92.9749 264.243 93.4962 264.491 94.0722C264.74 94.6483 264.873 95.2676 264.882 95.895C264.891 96.5224 264.777 97.1454 264.545 97.7284C264.313 98.3115 263.969 98.8432 263.532 99.293L218.6 145.567L211.746 138.908L256.681 92.6373C257.563 91.7294 258.77 91.2089 260.036 91.1903C261.302 91.1717 262.524 91.6565 263.432 92.5381Z" stroke="#45413C" stroke-linecap="round" stroke-linejoin="round"/>
<path d="M152.612 170.016H54.6738V210.626H145.445C147.346 210.626 149.169 209.871 150.513 208.527C151.857 207.183 152.612 205.36 152.612 203.459V170.016Z" fill="#FF6242" stroke="#45413C" stroke-linecap="round" stroke-linejoin="round"/>
<path d="M54.675 170.016H152.613V131.576C152.615 130.664 152.437 129.759 152.089 128.915C151.741 128.072 151.231 127.305 150.586 126.658C149.941 126.012 149.175 125.5 148.332 125.15C147.489 124.8 146.585 124.62 145.672 124.62H73.7803C72.3703 124.619 70.9925 125.041 69.8248 125.831C68.6572 126.622 67.7533 127.744 67.23 129.053L56.442 156.023C55.2727 158.95 54.6719 162.072 54.6719 165.224L54.675 170.016Z" fill="white" stroke="#45413C" stroke-linecap="round" stroke-linejoin="round"/>
<path d="M97.6724 138.964C97.6716 137.696 97.1676 136.481 96.2712 135.586C95.3749 134.69 94.1595 134.187 92.8922 134.187H83.338C81.9147 134.185 80.5211 134.594 79.3238 135.364C78.1265 136.133 77.1761 137.231 76.5862 138.527L68.5944 156.104C68.3835 156.571 68.2929 157.084 68.3306 157.595C68.3684 158.106 68.5334 158.6 68.8107 159.031C69.0879 159.463 69.4686 159.818 69.9181 160.064C70.3677 160.311 70.8717 160.441 71.3844 160.444H92.8829C94.1499 160.444 95.365 159.94 96.2608 159.044C97.1567 158.149 97.66 156.933 97.66 155.666L97.6724 138.964Z" fill="#00B8F0"/>
<path d="M92.8922 134.187H83.338C81.9147 134.185 80.5211 134.594 79.3238 135.364C78.1265 136.133 77.1761 137.231 76.5862 138.527L68.5944 156.104C68.3835 156.571 68.2929 157.084 68.3306 157.595C68.3684 158.106 68.5334 158.6 68.8107 159.031C69.0879 159.463 69.4686 159.818 69.9181 160.064C70.3677 160.311 70.8717 160.441 71.3844 160.444L96.2588 135.566C95.3635 134.679 94.1528 134.183 92.8922 134.187Z" fill="#4ACFFF"/>
<path d="M97.6724 138.964C97.6716 137.696 97.1676 136.481 96.2712 135.586C95.3749 134.69 94.1595 134.187 92.8922 134.187H83.338C81.9147 134.185 80.5211 134.594 79.3238 135.364C78.1265 136.133 77.1761 137.231 76.5862 138.527L68.5944 156.104C68.3835 156.571 68.2929 157.084 68.3306 157.595C68.3684 158.106 68.5334 158.6 68.8107 159.031C69.0879 159.463 69.4686 159.818 69.9181 160.064C70.3677 160.311 70.8717 160.441 71.3844 160.444H92.8829C94.1499 160.444 95.365 159.94 96.2608 159.044C97.1567 158.149 97.66 156.933 97.66 155.666L97.6724 138.964Z" stroke="#45413C" stroke-linecap="round" stroke-linejoin="round"/>
<path d="M112.004 134.187H138.285C139.551 134.187 140.764 134.689 141.659 135.584C142.554 136.479 143.056 137.692 143.056 138.957V155.697C143.056 156.964 142.553 158.178 141.658 159.073C140.763 159.969 139.548 160.471 138.282 160.471H112.004C110.737 160.471 109.522 159.968 108.626 159.072C107.73 158.176 107.227 156.961 107.227 155.694V138.964C107.227 137.697 107.73 136.482 108.626 135.586C109.522 134.69 110.737 134.187 112.004 134.187Z" fill="#00B8F0"/>
<path d="M112.001 134.187C110.734 134.187 109.52 134.69 108.625 135.585C107.73 136.48 107.227 137.694 107.227 138.961V155.701C107.228 156.62 107.495 157.518 107.996 158.289C108.497 159.059 109.211 159.667 110.051 160.041L135.892 134.202L112.001 134.187Z" fill="#4ACFFF"/>
<path d="M112.004 134.187H138.285C139.551 134.187 140.764 134.689 141.659 135.584C142.554 136.479 143.056 137.692 143.056 138.957V155.697C143.056 156.964 142.553 158.178 141.658 159.073C140.763 159.969 139.548 160.471 138.282 160.471H112.004C110.737 160.471 109.522 159.968 108.626 159.072C107.73 158.176 107.227 156.961 107.227 155.694V138.964C107.227 137.697 107.73 136.482 108.626 135.586C109.522 134.69 110.737 134.187 112.004 134.187Z" stroke="#45413C" stroke-linecap="round" stroke-linejoin="round"/>
<path d="M114.39 124.62C114.39 122.085 113.383 119.654 111.591 117.862C109.799 116.07 107.368 115.063 104.833 115.063H88.1147C86.8598 115.063 85.6172 115.31 84.4578 115.79C83.2984 116.271 82.245 116.975 81.3578 117.862C80.4706 118.75 79.7669 119.803 79.2869 120.963C78.807 122.122 78.5601 123.365 78.5605 124.62H114.39Z" fill="#E0E0E0"/>
<path d="M104.836 119.852H88.1147C86.4455 119.855 84.8064 120.297 83.3622 121.134C81.9179 121.971 80.7195 123.173 79.8874 124.62H78.5605C78.5601 123.365 78.807 122.122 79.2869 120.963C79.7669 119.803 80.4706 118.75 81.3578 117.862C82.245 116.975 83.2984 116.271 84.4578 115.79C85.6172 115.31 86.8598 115.063 88.1147 115.063H104.836C107.37 115.064 109.801 116.071 111.592 117.863C113.384 119.655 114.39 122.086 114.39 124.62H113.064C112.231 123.173 111.032 121.971 109.588 121.134C108.144 120.298 106.505 119.855 104.836 119.852Z" fill="#BDBEC0"/>
<path d="M114.39 124.62C114.39 122.085 113.383 119.654 111.591 117.862C109.799 116.07 107.368 115.063 104.833 115.063H88.1147C86.8598 115.063 85.6172 115.31 84.4578 115.79C83.2984 116.271 82.245 116.975 81.3578 117.862C80.4706 118.75 79.7669 119.803 79.2869 120.963C78.807 122.122 78.5601 123.365 78.5605 124.62H114.39Z" stroke="#45413C" stroke-linecap="round" stroke-linejoin="round"/>
<path d="M40.3398 201.066C40.3398 200.439 40.4633 199.818 40.7032 199.239C40.9432 198.66 41.2948 198.134 41.7381 197.69C42.1814 197.247 42.7077 196.895 43.2869 196.655C43.8661 196.415 44.4869 196.292 45.1138 196.292H54.6742V210.626H45.12C44.4919 210.626 43.87 210.502 43.2898 210.261C42.7096 210.02 42.1825 209.668 41.7386 209.223C41.2948 208.779 40.9428 208.251 40.7028 207.671C40.4628 207.09 40.3394 206.468 40.3398 205.84V201.066Z" fill="#E0E0E0"/>
<path d="M45.1138 196.292H54.6742V202.266H45.1138C44.0686 202.273 43.0556 202.628 42.2349 203.276C41.4141 203.923 40.8324 204.825 40.5816 205.84C40.4491 205.454 40.3678 205.053 40.3398 204.646V201.066C40.3407 199.8 40.8439 198.586 41.739 197.691C42.6341 196.796 43.848 196.293 45.1138 196.292Z" fill="white"/>
<path d="M40.3398 201.066C40.3398 200.439 40.4633 199.818 40.7032 199.239C40.9432 198.66 41.2948 198.134 41.7381 197.69C42.1814 197.247 42.7077 196.895 43.2869 196.655C43.8661 196.415 44.4869 196.292 45.1138 196.292H54.6742V210.626H45.12C44.4919 210.626 43.87 210.502 43.2898 210.261C42.7096 210.02 42.1825 209.668 41.7386 209.223C41.2948 208.779 40.9428 208.251 40.7028 207.671C40.4628 207.09 40.3394 206.468 40.3398 205.84V201.066Z" stroke="#45413C" stroke-linecap="round" stroke-linejoin="round"/>
<path d="M64.2285 203.459C64.2285 201.558 64.9836 199.735 66.3277 198.391C67.6719 197.047 69.4949 196.292 71.3957 196.292H133.501C135.402 196.292 137.225 197.047 138.569 198.391C139.913 199.735 140.668 201.558 140.668 203.459V210.626H64.2285V203.459Z" fill="#87898C"/>
<path d="M133.501 196.292C135.402 196.292 137.225 197.047 138.569 198.391C139.913 199.735 140.668 201.558 140.668 203.459H64.2285C64.2285 201.558 64.9836 199.735 66.3277 198.391C67.6719 197.047 69.4949 196.292 71.3957 196.292H133.501Z" fill="#87898C"/>
<path d="M64.2285 203.459C64.2285 201.558 64.9836 199.735 66.3277 198.391C67.6719 197.047 69.4949 196.292 71.3957 196.292H133.501C135.402 196.292 137.225 197.047 138.569 198.391C139.913 199.735 140.668 201.558 140.668 203.459V210.626H64.2285V203.459Z" stroke="#45413C" stroke-linecap="round" stroke-linejoin="round"/>
<path d="M303.1 141.131C303.1 139.289 302.369 137.523 301.066 136.22C299.764 134.918 297.998 134.187 296.156 134.187H162.168V203.459C162.168 205.36 162.923 207.182 164.266 208.526C165.61 209.87 167.432 210.626 169.332 210.626H295.933C296.874 210.627 297.806 210.442 298.676 210.082C299.546 209.722 300.336 209.194 301.002 208.528C301.667 207.862 302.195 207.072 302.555 206.202C302.915 205.333 303.101 204.401 303.1 203.459V141.131Z" fill="#FF6242"/>
<path d="M295.933 134.187H296.156C297.998 134.187 299.764 134.918 301.066 136.22C302.369 137.523 303.1 139.289 303.1 141.131V148.298C303.1 146.456 302.369 144.689 301.066 143.387C299.764 142.084 297.998 141.352 296.156 141.351H162.168V134.187H295.933Z" fill="#FF6242"/>
<path d="M303.1 141.131C303.1 139.289 302.369 137.523 301.066 136.22C299.764 134.918 297.998 134.187 296.156 134.187H162.168V203.459C162.168 205.36 162.923 207.182 164.266 208.526C165.61 209.87 167.432 210.626 169.332 210.626H295.933C296.874 210.627 297.806 210.442 298.676 210.082C299.546 209.722 300.336 209.194 301.002 208.528C301.667 207.862 302.195 207.072 302.555 206.202C302.915 205.333 303.101 204.401 303.1 203.459V141.131Z" stroke="#45413C" stroke-linecap="round" stroke-linejoin="round"/>
<path d="M152.61 79.2453L131.112 100.744L109.613 79.2453" stroke="#45413C" stroke-linecap="round" stroke-linejoin="round"/>
<path d="M109.613 79.2453L88.1149 100.744L68.0176 80.6465" stroke="#45413C" stroke-linecap="round" stroke-linejoin="round"/>
<path d="M152.609 138.964H162.164V203.459H152.609V138.964Z" fill="#87898C"/>
<path d="M152.609 138.964H162.164V146.131H152.609V138.964Z" fill="#87898C"/>
<path d="M152.609 138.964H162.164V203.459H152.609V138.964Z" stroke="#45413C" stroke-linecap="round" stroke-linejoin="round"/>
<path d="M54.6738 100.744H66.6181V110.298H54.6738V100.744Z" fill="#87898C" stroke="#45413C" stroke-linecap="round" stroke-linejoin="round"/>
<path d="M15.3603 119.97C15.6724 121.293 16.4219 122.472 17.4875 123.316C18.5531 124.16 19.8724 124.619 21.2317 124.62H49.9098C51.1776 124.62 52.3934 124.116 53.2899 123.22C54.1864 122.323 54.69 121.108 54.69 119.84V84.01H6.90039L15.3603 119.97Z" fill="#E0E0E0"/>
<path d="M54.6745 91.1896H8.58369L6.90039 84.0224H54.6745V91.1896Z" fill="#BDBEC0"/>
<path d="M15.3603 119.97C15.6724 121.293 16.4219 122.472 17.4875 123.316C18.5531 124.16 19.8724 124.619 21.2317 124.62H49.9098C51.1776 124.62 52.3934 124.116 53.2899 123.22C54.1864 122.323 54.69 121.108 54.69 119.84V84.01H6.90039L15.3603 119.97Z" stroke="#45413C" stroke-linecap="round" stroke-linejoin="round"/>
<path d="M6.90039 79.2453C6.89998 78.6181 7.02317 77.997 7.2629 77.4174C7.50263 76.8379 7.85422 76.3112 8.29757 75.8676C8.74091 75.4239 9.26733 75.072 9.84674 74.8319C10.4262 74.5918 11.0472 74.4682 11.6744 74.4682H49.9098C51.1768 74.4682 52.3918 74.9715 53.2877 75.8674C54.1836 76.7633 54.6869 77.9783 54.6869 79.2453V84.01H6.90039V79.2453Z" fill="#87898C"/>
<path d="M6.90039 79.2453C6.89998 78.6181 7.02317 77.997 7.2629 77.4174C7.50263 76.8379 7.85422 76.3112 8.29757 75.8676C8.74091 75.4239 9.26733 75.072 9.84674 74.8319C10.4262 74.5918 11.0472 74.4682 11.6744 74.4682H49.9098C51.1768 74.4682 52.3918 74.9715 53.2877 75.8674C54.1836 76.7633 54.6869 77.9783 54.6869 79.2453V84.01C54.6836 82.7452 54.1789 81.5333 53.2833 80.6401C52.3878 79.7469 51.1746 79.2453 49.9098 79.2453H11.6744C10.4099 79.2453 9.19698 79.747 8.30195 80.6403C7.40692 81.5336 6.90286 82.7455 6.90039 84.01V79.2453Z" fill="#87898C"/>
<path d="M6.90039 79.2453C6.89998 78.6181 7.02317 77.997 7.2629 77.4174C7.50263 76.8379 7.85422 76.3112 8.29757 75.8676C8.74091 75.4239 9.26733 75.072 9.84674 74.8319C10.4262 74.5918 11.0472 74.4682 11.6744 74.4682H49.9098C51.1768 74.4682 52.3918 74.9715 53.2877 75.8674C54.1836 76.7633 54.6869 77.9783 54.6869 79.2453V84.01H6.90039V79.2453Z" stroke="#45413C" stroke-linecap="round" stroke-linejoin="round"/>
<path d="M269.656 143.741C268.389 143.741 267.174 144.244 266.278 145.14C265.382 146.036 264.879 147.251 264.879 148.518V191.515C264.879 192.782 265.382 193.997 266.278 194.893C267.174 195.789 268.389 196.292 269.656 196.292H288.768C290.034 196.292 291.25 195.789 292.145 194.893C293.041 193.997 293.545 192.782 293.545 191.515V148.518C293.545 147.251 293.041 146.036 292.145 145.14C291.25 144.244 290.034 143.741 288.768 143.741H269.656ZM274.436 153.295H283.99V186.738H274.436V153.295Z" fill="#E0E0E0" stroke="#45413C" stroke-linecap="round" stroke-linejoin="round"/>
<path d="M176.499 143.741C175.871 143.74 175.25 143.864 174.67 144.104C174.09 144.343 173.563 144.695 173.119 145.139C172.675 145.583 172.323 146.109 172.083 146.689C171.842 147.269 171.719 147.89 171.719 148.518V191.515C171.719 192.782 172.222 193.997 173.118 194.893C174.014 195.789 175.229 196.292 176.496 196.292H195.61C196.877 196.292 198.092 195.789 198.988 194.893C199.884 193.997 200.388 192.782 200.388 191.515V148.518C200.388 147.251 199.884 146.036 198.988 145.14C198.092 144.244 196.877 143.741 195.61 143.741H176.499ZM181.276 153.295H190.83V186.738H181.276V153.295Z" fill="#E0E0E0" stroke="#45413C" stroke-linecap="round" stroke-linejoin="round"/>
<path d="M214.719 143.741C213.446 143.741 212.225 144.246 211.325 145.146C210.425 146.046 209.92 147.267 209.92 148.54V167.632C209.92 168.26 210.043 168.882 210.283 169.462C210.523 170.041 210.874 170.568 211.318 171.012C211.762 171.456 212.288 171.808 212.868 172.049C213.448 172.289 214.069 172.413 214.697 172.413H250.536C251.164 172.413 251.785 172.289 252.365 172.049C252.945 171.808 253.471 171.456 253.915 171.012C254.359 170.568 254.711 170.041 254.95 169.462C255.19 168.882 255.314 168.26 255.313 167.632V148.518C255.313 147.251 254.81 146.036 253.914 145.14C253.018 144.244 251.803 143.741 250.536 143.741H214.719ZM219.496 153.295H245.771V162.849H219.496V153.295Z" fill="#E0E0E0" stroke="#45413C" stroke-linecap="round" stroke-linejoin="round"/>
<path d="M215.912 210.626C215.912 215.061 217.674 219.314 220.81 222.45C223.946 225.586 228.199 227.348 232.634 227.348C237.068 227.348 241.321 225.586 244.457 222.45C247.593 219.314 249.355 215.061 249.355 210.626C249.355 206.192 247.593 201.938 244.457 198.803C241.321 195.667 237.068 193.905 232.634 193.905C228.199 193.905 223.946 195.667 220.81 198.803C217.674 201.938 215.912 206.192 215.912 210.626Z" fill="#45413C"/>
<path d="M232.634 201.069C228.824 201.072 225.129 202.377 222.162 204.767C219.195 207.156 217.133 210.488 216.318 214.21C215.769 211.764 215.777 209.226 216.341 206.783C216.906 204.34 218.012 202.056 219.579 200.098C221.145 198.141 223.132 196.561 225.392 195.475C227.652 194.39 230.126 193.826 232.634 193.826C235.141 193.826 237.616 194.39 239.875 195.475C242.135 196.561 244.122 198.141 245.688 200.098C247.255 202.056 248.361 204.34 248.926 206.783C249.49 209.226 249.498 211.764 248.949 214.21C248.134 210.488 246.072 207.156 243.105 204.767C240.138 202.377 236.443 201.072 232.634 201.069Z" fill="#87898C"/>
<path d="M215.912 210.626C215.912 215.061 217.674 219.314 220.81 222.45C223.946 225.586 228.199 227.348 232.634 227.348C237.068 227.348 241.321 225.586 244.457 222.45C247.593 219.314 249.355 215.061 249.355 210.626C249.355 206.192 247.593 201.938 244.457 198.803C241.321 195.667 237.068 193.905 232.634 193.905C228.199 193.905 223.946 195.667 220.81 198.803C217.674 201.938 215.912 206.192 215.912 210.626Z" stroke="#45413C" stroke-linecap="round" stroke-linejoin="round"/>
<path d="M225.467 210.626C225.467 211.568 225.652 212.5 226.012 213.369C226.373 214.239 226.9 215.029 227.566 215.694C228.232 216.36 229.022 216.888 229.891 217.248C230.761 217.608 231.693 217.794 232.634 217.794C233.575 217.794 234.507 217.608 235.377 217.248C236.246 216.888 237.036 216.36 237.702 215.694C238.368 215.029 238.895 214.239 239.256 213.369C239.616 212.5 239.801 211.568 239.801 210.626C239.801 209.685 239.616 208.753 239.256 207.884C238.895 207.014 238.368 206.224 237.702 205.558C237.036 204.893 236.246 204.365 235.377 204.005C234.507 203.645 233.575 203.459 232.634 203.459C231.693 203.459 230.761 203.645 229.891 204.005C229.022 204.365 228.232 204.893 227.566 205.558C226.9 206.224 226.373 207.014 226.012 207.884C225.652 208.753 225.467 209.685 225.467 210.626Z" fill="#E0E0E0"/>
<path d="M232.633 209.43C231.261 209.429 229.918 209.823 228.763 210.564C227.609 211.306 226.692 212.364 226.123 213.612C225.614 212.52 225.389 211.317 225.469 210.115C225.548 208.913 225.929 207.75 226.577 206.734C227.224 205.718 228.118 204.882 229.174 204.303C230.23 203.723 231.416 203.42 232.62 203.42C233.825 203.42 235.01 203.723 236.067 204.303C237.123 204.882 238.016 205.718 238.664 206.734C239.311 207.75 239.693 208.913 239.772 210.115C239.851 211.317 239.626 212.52 239.118 213.612C238.55 212.367 237.637 211.312 236.488 210.571C235.338 209.83 234 209.434 232.633 209.43Z" fill="white"/>
<path d="M225.467 210.626C225.467 211.568 225.652 212.5 226.012 213.369C226.373 214.239 226.9 215.029 227.566 215.694C228.232 216.36 229.022 216.888 229.891 217.248C230.761 217.608 231.693 217.794 232.634 217.794C233.575 217.794 234.507 217.608 235.377 217.248C236.246 216.888 237.036 216.36 237.702 215.694C238.368 215.029 238.895 214.239 239.256 213.369C239.616 212.5 239.801 211.568 239.801 210.626C239.801 209.685 239.616 208.753 239.256 207.884C238.895 207.014 238.368 206.224 237.702 205.558C237.036 204.893 236.246 204.365 235.377 204.005C234.507 203.645 233.575 203.459 232.634 203.459C231.693 203.459 230.761 203.645 229.891 204.005C229.022 204.365 228.232 204.893 227.566 205.558C226.9 206.224 226.373 207.014 226.012 207.884C225.652 208.753 225.467 209.685 225.467 210.626Z" stroke="#45413C" stroke-linecap="round" stroke-linejoin="round"/>
<path d="M232.633 193.905C230.437 193.905 228.262 194.337 226.234 195.177C224.205 196.017 222.361 197.249 220.808 198.802C219.255 200.354 218.024 202.198 217.184 204.227C216.343 206.256 215.911 208.43 215.912 210.626H206.357C206.357 203.658 209.126 196.974 214.053 192.047C218.981 187.119 225.664 184.351 232.633 184.351C239.602 184.351 246.285 187.119 251.213 192.047C256.14 196.974 258.909 203.658 258.909 210.626H249.354C249.355 208.43 248.923 206.256 248.082 204.227C247.242 202.198 246.011 200.354 244.458 198.802C242.905 197.249 241.061 196.017 239.033 195.177C237.004 194.337 234.829 193.905 232.633 193.905Z" fill="#E0E0E0"/>
<path d="M232.633 189.128C226.495 189.13 220.552 191.281 215.836 195.208C211.119 199.135 207.927 204.591 206.813 210.626H206.357C206.357 203.658 209.126 196.974 214.053 192.047C218.981 187.119 225.664 184.351 232.633 184.351C239.602 184.351 246.285 187.119 251.213 192.047C256.14 196.974 258.909 203.658 258.909 210.626H258.453C257.339 204.591 254.147 199.135 249.43 195.208C244.714 191.281 238.771 189.13 232.633 189.128Z" fill="white"/>
<path d="M232.633 193.905C230.437 193.905 228.262 194.337 226.234 195.177C224.205 196.017 222.361 197.249 220.808 198.802C219.255 200.354 218.024 202.198 217.184 204.227C216.343 206.256 215.911 208.43 215.912 210.626H206.357C206.357 203.658 209.126 196.974 214.053 192.047C218.981 187.119 225.664 184.351 232.633 184.351C239.602 184.351 246.285 187.119 251.213 192.047C256.14 196.974 258.909 203.658 258.909 210.626H249.354C249.355 208.43 248.923 206.256 248.082 204.227C247.242 202.198 246.011 200.354 244.458 198.802C242.905 197.249 241.061 196.017 239.033 195.177C237.004 194.337 234.829 193.905 232.633 193.905Z" stroke="#45413C" stroke-linecap="round" stroke-linejoin="round"/>
<path d="M85.7266 210.626C85.7266 215.061 87.4883 219.314 90.6241 222.45C93.76 225.586 98.0132 227.348 102.448 227.348C106.883 227.348 111.136 225.586 114.272 222.45C117.408 219.314 119.169 215.061 119.169 210.626C119.169 206.192 117.408 201.938 114.272 198.803C111.136 195.667 106.883 193.905 102.448 193.905C98.0132 193.905 93.76 195.667 90.6241 198.803C87.4883 201.938 85.7266 206.192 85.7266 210.626Z" fill="#45413C"/>
<path d="M102.449 201.069C98.6388 201.072 94.9439 202.376 91.9766 204.766C89.0093 207.156 86.9478 210.488 86.1336 214.21C85.6313 211.918 85.6172 209.546 86.0923 207.248C86.5673 204.95 87.5209 202.778 88.891 200.874C90.2611 198.969 92.0169 197.374 94.0442 196.193C96.0715 195.011 98.3248 194.27 100.657 194.017C102.99 193.764 105.35 194.006 107.583 194.725C109.817 195.445 111.873 196.627 113.62 198.194C115.366 199.761 116.763 201.678 117.719 203.821C118.676 205.963 119.17 208.283 119.17 210.63C119.163 211.834 119.027 213.034 118.764 214.21C117.95 210.488 115.888 207.156 112.921 204.767C109.953 202.377 106.259 201.072 102.449 201.069Z" fill="#87898C"/>
<path d="M85.7266 210.626C85.7266 215.061 87.4883 219.314 90.6241 222.45C93.76 225.586 98.0132 227.348 102.448 227.348C106.883 227.348 111.136 225.586 114.272 222.45C117.408 219.314 119.169 215.061 119.169 210.626C119.169 206.192 117.408 201.938 114.272 198.803C111.136 195.667 106.883 193.905 102.448 193.905C98.0132 193.905 93.76 195.667 90.6241 198.803C87.4883 201.938 85.7266 206.192 85.7266 210.626Z" stroke="#45413C" stroke-linecap="round" stroke-linejoin="round"/>
<path d="M95.2812 210.626C95.2813 212.527 96.0364 214.35 97.3805 215.694C98.7246 217.039 100.548 217.794 102.448 217.794C104.349 217.794 106.172 217.039 107.516 215.694C108.861 214.35 109.616 212.527 109.616 210.626C109.616 208.726 108.861 206.903 107.516 205.558C106.172 204.214 104.349 203.459 102.448 203.459C100.548 203.459 98.7246 204.214 97.3805 205.558C96.0364 206.903 95.2812 208.726 95.2812 210.626Z" fill="#E0E0E0"/>
<path d="M102.449 209.43C101.077 209.429 99.7336 209.823 98.5793 210.564C97.4251 211.306 96.5084 212.364 95.9387 213.612C95.4296 212.519 95.204 211.317 95.283 210.114C95.3619 208.912 95.7427 207.748 96.3903 206.732C97.0378 205.716 97.9311 204.879 98.9876 204.3C100.044 203.72 101.23 203.416 102.435 203.416C103.64 203.416 104.825 203.72 105.882 204.3C106.938 204.879 107.832 205.716 108.479 206.732C109.127 207.748 109.508 208.912 109.587 210.114C109.666 211.317 109.44 212.519 108.931 213.612C108.364 212.368 107.452 211.312 106.303 210.571C105.154 209.83 103.816 209.434 102.449 209.43Z" fill="white"/>
<path d="M95.2812 210.626C95.2813 212.527 96.0364 214.35 97.3805 215.694C98.7246 217.039 100.548 217.794 102.448 217.794C104.349 217.794 106.172 217.039 107.516 215.694C108.861 214.35 109.616 212.527 109.616 210.626C109.616 208.726 108.861 206.903 107.516 205.558C106.172 204.214 104.349 203.459 102.448 203.459C100.548 203.459 98.7246 204.214 97.3805 205.558C96.0364 206.903 95.2812 208.726 95.2812 210.626Z" stroke="#45413C" stroke-linecap="round" stroke-linejoin="round"/>
<path d="M102.449 193.905C100.253 193.905 98.0789 194.337 96.0499 195.177C94.021 196.017 92.1775 197.249 90.6247 198.802C89.0719 200.354 87.8402 202.198 87 204.227C86.1599 206.256 85.7276 208.43 85.728 210.626H76.1738C76.1738 207.176 76.8535 203.759 78.1739 200.571C79.4944 197.383 81.4299 194.487 83.8698 192.047C86.3097 189.607 89.2063 187.671 92.3942 186.351C95.5821 185.03 98.9989 184.351 102.449 184.351C105.9 184.351 109.317 185.03 112.505 186.351C115.693 187.671 118.589 189.607 121.029 192.047C123.469 194.487 125.404 197.383 126.725 200.571C128.045 203.759 128.725 207.176 128.725 210.626H119.171C119.171 208.43 118.739 206.256 117.899 204.227C117.059 202.198 115.827 200.354 114.274 198.802C112.721 197.249 110.878 196.017 108.849 195.177C106.82 194.337 104.645 193.905 102.449 193.905Z" fill="#E0E0E0"/>
<path d="M102.449 189.128C96.3116 189.13 90.3683 191.282 85.6512 195.209C80.9342 199.136 77.7411 204.591 76.6264 210.626H76.1738C76.1738 207.176 76.8535 203.759 78.1739 200.571C79.4944 197.383 81.4299 194.487 83.8698 192.047C86.3097 189.607 89.2063 187.671 92.3942 186.351C95.5821 185.03 98.9989 184.351 102.449 184.351C105.9 184.351 109.317 185.03 112.505 186.351C115.693 187.671 118.589 189.607 121.029 192.047C123.469 194.487 125.404 197.383 126.725 200.571C128.045 203.759 128.725 207.176 128.725 210.626H128.269C127.155 204.591 123.963 199.136 119.246 195.209C114.53 191.282 108.587 189.13 102.449 189.128Z" fill="white"/>
<path d="M102.449 193.905C100.253 193.905 98.0789 194.337 96.0499 195.177C94.021 196.017 92.1775 197.249 90.6247 198.802C89.0719 200.354 87.8402 202.198 87 204.227C86.1598 206.256 85.7276 208.43 85.728 210.626H76.1738C76.1738 207.176 76.8535 203.759 78.1739 200.571C79.4944 197.383 81.4299 194.487 83.8698 192.047C86.3097 189.607 89.2063 187.671 92.3942 186.351C95.5821 185.03 98.9989 184.351 102.449 184.351C105.9 184.351 109.317 185.03 112.505 186.351C115.693 187.671 118.589 189.607 121.029 192.047C123.469 194.487 125.404 197.383 126.725 200.571C128.045 203.759 128.725 207.176 128.725 210.626H119.171C119.171 208.43 118.739 206.256 117.899 204.227C117.059 202.198 115.827 200.354 114.274 198.802C112.721 197.249 110.878 196.017 108.849 195.177C106.82 194.337 104.645 193.905 102.449 193.905Z" stroke="#45413C" stroke-linecap="round" stroke-linejoin="round"/>
</svg>
