<svg width="24" height="24" viewBox="0 0 24 24" fill="none" xmlns="http://www.w3.org/2000/svg">
<path d="M23.3333 5.3335H8.66667C8.48986 5.3335 8.32029 5.40373 8.19526 5.52876C8.07024 5.65378 8 5.82335 8 6.00016C8 6.17697 8.07024 6.34654 8.19526 6.47157C8.32029 6.59659 8.48986 6.66683 8.66667 6.66683H10V8.00016H11.3333V6.66683H12.6667V8.00016H14V6.66683H15.3333V8.00016H16.6667V6.66683H18V8.00016H19.3333V6.66683H20.6667V8.00016H22V6.66683H23.3333C23.5101 6.66683 23.6797 6.59659 23.8047 6.47157C23.9298 6.34654 24 6.17697 24 6.00016C24 5.82335 23.9298 5.65378 23.8047 5.52876C23.6797 5.40373 23.5101 5.3335 23.3333 5.3335ZM24 8.66683C24 8.84364 23.9298 9.01321 23.8047 9.13823C23.6797 9.26326 23.5101 9.3335 23.3333 9.3335H8.66667C8.48986 9.3335 8.32029 9.26326 8.19526 9.13823C8.07024 9.01321 8 8.84364 8 8.66683C8 8.49002 8.07024 8.32045 8.19526 8.19543C8.32029 8.0704 8.48986 8.00016 8.66667 8.00016H23.3333C23.5101 8.00016 23.6797 8.0704 23.8047 8.19543C23.9298 8.32045 24 8.49002 24 8.66683Z" fill="#CCD6DD"/>
<path d="M21.3333 9.33333H9.33333C9.33333 9.33333 9.36067 8 7.34733 8H3.43067C0 8 0 13.306 0 13.306V18C0 18.7072 0.280952 19.3855 0.781049 19.8856C1.28115 20.3857 1.95942 20.6667 2.66667 20.6667H21.3333C22.0406 20.6667 22.7189 20.3857 23.219 19.8856C23.719 19.3855 24 18.7072 24 18V12C24 11.2928 23.719 10.6145 23.219 10.1144C22.7189 9.61428 22.0406 9.33333 21.3333 9.33333Z" fill="#DD2E44"/>
<path d="M1.33398 14.6665H22.6673V16.6665H1.33398V14.6665Z" fill="#F5F8FA"/>
<path d="M4.66667 23.3333C6.13943 23.3333 7.33333 22.1394 7.33333 20.6667C7.33333 19.1939 6.13943 18 4.66667 18C3.19391 18 2 19.1939 2 20.6667C2 22.1394 3.19391 23.3333 4.66667 23.3333Z" fill="#292F33"/>
<path d="M4.66732 22.0002C5.4037 22.0002 6.00065 21.4032 6.00065 20.6668C6.00065 19.9304 5.4037 19.3335 4.66732 19.3335C3.93094 19.3335 3.33398 19.9304 3.33398 20.6668C3.33398 21.4032 3.93094 22.0002 4.66732 22.0002Z" fill="#8899A6"/>
<path d="M18.6667 23.3333C20.1394 23.3333 21.3333 22.1394 21.3333 20.6667C21.3333 19.1939 20.1394 18 18.6667 18C17.1939 18 16 19.1939 16 20.6667C16 22.1394 17.1939 23.3333 18.6667 23.3333Z" fill="#292F33"/>
<path d="M18.6673 22.0002C19.4037 22.0002 20.0007 21.4032 20.0007 20.6668C20.0007 19.9304 19.4037 19.3335 18.6673 19.3335C17.9309 19.3335 17.334 19.9304 17.334 20.6668C17.334 21.4032 17.9309 22.0002 18.6673 22.0002Z" fill="#8899A6"/>
<path d="M4.66732 13.3335H1.33398C1.33398 13.3335 1.33398 9.3335 3.33398 9.3335H4.66732V13.3335ZM8.00065 13.3335H6.00065V9.3335H6.66732C7.33398 9.3335 8.00065 10.0002 8.00065 10.6668V13.3335Z" fill="#55ACEE"/>
<path d="M5.33268 7.33317C5.33268 7.50998 5.26244 7.67955 5.13742 7.80457C5.0124 7.9296 4.84283 7.99984 4.66602 7.99984H3.33268C3.15587 7.99984 2.9863 7.9296 2.86128 7.80457C2.73625 7.67955 2.66602 7.50998 2.66602 7.33317C2.66602 7.15636 2.73625 6.98679 2.86128 6.86177C2.9863 6.73674 3.15587 6.6665 3.33268 6.6665H4.66602C4.84283 6.6665 5.0124 6.73674 5.13742 6.86177C5.26244 6.98679 5.33268 7.15636 5.33268 7.33317Z" fill="#FFAC33"/>
<path d="M6.66667 7.33317C6.66667 7.50998 6.59643 7.67955 6.4714 7.80457C6.34638 7.9296 6.17681 7.99984 6 7.99984H4.66667C4.48986 7.99984 4.32029 7.9296 4.19526 7.80457C4.07024 7.67955 4 7.50998 4 7.33317C4 7.15636 4.07024 6.98679 4.19526 6.86177C4.32029 6.73674 4.48986 6.6665 4.66667 6.6665H6C6.17681 6.6665 6.34638 6.73674 6.4714 6.86177C6.59643 6.98679 6.66667 7.15636 6.66667 7.33317Z" fill="#3B88C3"/>
</svg>
