<svg width="83" height="83" viewBox="0 0 83 83" fill="none" xmlns="http://www.w3.org/2000/svg">
<path fill-rule="evenodd" clip-rule="evenodd" d="M41.5 15.5625C34.6209 15.5625 28.0236 18.2952 23.1594 23.1594C18.2952 28.0236 15.5625 34.6209 15.5625 41.5C15.5625 48.3791 18.2952 54.9764 23.1594 59.8406C28.0236 64.7048 34.6209 67.4375 41.5 67.4375C48.3791 67.4375 54.9764 64.7048 59.8406 59.8406C64.7048 54.9764 67.4375 48.3791 67.4375 41.5C67.4375 34.6209 64.7048 28.0236 59.8406 23.1594C54.9764 18.2952 48.3791 15.5625 41.5 15.5625ZM5.1875 41.5C5.1875 21.4451 21.4451 5.1875 41.5 5.1875C61.5549 5.1875 77.8125 21.4451 77.8125 41.5C77.8125 61.5549 61.5549 77.8125 41.5 77.8125C21.4451 77.8125 5.1875 61.5549 5.1875 41.5Z" fill="#12B76A"/>
<path fill-rule="evenodd" clip-rule="evenodd" d="M41.5001 15.5625C34.8131 15.5482 28.3817 18.131 23.5618 22.7662C22.5633 23.6895 21.2421 24.1837 19.8829 24.1425C18.5236 24.1013 17.2348 23.528 16.2941 22.5459C15.3533 21.5639 14.8358 20.2518 14.853 18.892C14.8701 17.5322 15.4205 16.2335 16.3857 15.2755C23.1365 8.78986 32.1387 5.17386 41.5001 5.18754C42.8759 5.18754 44.1954 5.73408 45.1683 6.70692C46.1411 7.67977 46.6876 8.99923 46.6876 10.375C46.6876 11.7508 46.1411 13.0703 45.1683 14.0432C44.1954 15.016 42.8759 15.5625 41.5001 15.5625Z" fill="#12B76A"/>
<path d="M24.63 38.25V36.794H27.542V47H25.932V38.25H24.63ZM29.7345 41.764C29.7345 40.1493 30.0052 38.8893 30.5465 37.984C31.0972 37.0693 32.0399 36.612 33.3745 36.612C34.7092 36.612 35.6472 37.0693 36.1885 37.984C36.7392 38.8893 37.0145 40.1493 37.0145 41.764C37.0145 43.3973 36.7392 44.676 36.1885 45.6C35.6472 46.5147 34.7092 46.972 33.3745 46.972C32.0399 46.972 31.0972 46.5147 30.5465 45.6C30.0052 44.676 29.7345 43.3973 29.7345 41.764ZM35.4465 41.764C35.4465 41.008 35.3952 40.3687 35.2925 39.846C35.1992 39.3233 35.0032 38.8987 34.7045 38.572C34.4059 38.236 33.9625 38.068 33.3745 38.068C32.7865 38.068 32.3432 38.236 32.0445 38.572C31.7459 38.8987 31.5452 39.3233 31.4425 39.846C31.3492 40.3687 31.3025 41.008 31.3025 41.764C31.3025 42.548 31.3492 43.206 31.4425 43.738C31.5359 44.27 31.7319 44.6993 32.0305 45.026C32.3385 45.3527 32.7865 45.516 33.3745 45.516C33.9625 45.516 34.4059 45.3527 34.7045 45.026C35.0125 44.6993 35.2132 44.27 35.3065 43.738C35.3999 43.206 35.4465 42.548 35.4465 41.764ZM38.7033 41.764C38.7033 40.1493 38.9739 38.8893 39.5153 37.984C40.0659 37.0693 41.0086 36.612 42.3433 36.612C43.6779 36.612 44.6159 37.0693 45.1573 37.984C45.7079 38.8893 45.9833 40.1493 45.9833 41.764C45.9833 43.3973 45.7079 44.676 45.1573 45.6C44.6159 46.5147 43.6779 46.972 42.3433 46.972C41.0086 46.972 40.0659 46.5147 39.5153 45.6C38.9739 44.676 38.7033 43.3973 38.7033 41.764ZM44.4153 41.764C44.4153 41.008 44.3639 40.3687 44.2613 39.846C44.1679 39.3233 43.9719 38.8987 43.6733 38.572C43.3746 38.236 42.9313 38.068 42.3433 38.068C41.7553 38.068 41.3119 38.236 41.0133 38.572C40.7146 38.8987 40.5139 39.3233 40.4113 39.846C40.3179 40.3687 40.2713 41.008 40.2713 41.764C40.2713 42.548 40.3179 43.206 40.4113 43.738C40.5046 44.27 40.7006 44.6993 40.9993 45.026C41.3073 45.3527 41.7553 45.516 42.3433 45.516C42.9313 45.516 43.3746 45.3527 43.6733 45.026C43.9813 44.6993 44.1819 44.27 44.2753 43.738C44.3686 43.206 44.4153 42.548 44.4153 41.764ZM47.42 39.258C47.42 38.5767 47.616 38.0447 48.008 37.662C48.4094 37.27 48.9227 37.074 49.548 37.074C50.1734 37.074 50.682 37.27 51.074 37.662C51.4754 38.0447 51.676 38.5767 51.676 39.258C51.676 39.9393 51.4754 40.476 51.074 40.868C50.682 41.26 50.1734 41.456 49.548 41.456C48.9227 41.456 48.4094 41.26 48.008 40.868C47.616 40.476 47.42 39.9393 47.42 39.258ZM55.96 37.256L50.374 47H48.806L54.392 37.256H55.96ZM49.548 38.04C48.96 38.04 48.666 38.446 48.666 39.258C48.666 40.0793 48.96 40.49 49.548 40.49C49.828 40.49 50.0427 40.392 50.192 40.196C50.3507 39.9907 50.43 39.678 50.43 39.258C50.43 38.446 50.136 38.04 49.548 38.04ZM53.118 44.984C53.118 44.3027 53.314 43.7707 53.706 43.388C54.1074 42.996 54.6207 42.8 55.246 42.8C55.862 42.8 56.366 42.996 56.758 43.388C57.1594 43.7707 57.36 44.3027 57.36 44.984C57.36 45.6653 57.1594 46.202 56.758 46.594C56.366 46.986 55.862 47.182 55.246 47.182C54.6207 47.182 54.1074 46.986 53.706 46.594C53.314 46.202 53.118 45.6653 53.118 44.984ZM55.232 43.766C54.644 43.766 54.35 44.172 54.35 44.984C54.35 45.796 54.644 46.202 55.232 46.202C55.82 46.202 56.114 45.796 56.114 44.984C56.114 44.172 55.82 43.766 55.232 43.766Z" fill="#12B76A"/>
</svg>
