<svg width="130" height="130" viewBox="0 0 130 130" fill="none" xmlns="http://www.w3.org/2000/svg">
<g clip-path="url(#clip0_2481_2180)">
<path d="M65 28.8889L39.7222 0H0L50.5556 61.3889L92.1592 44.2361L65 28.8889Z" fill="#55ACEE"/>
<path d="M90.2778 0L65 28.8889L84.4639 55.2933L88.8947 49.9164L130 0H90.2778Z" fill="#3B88C3"/>
<path d="M83.7959 57.8732C84.0848 57.0895 84.269 56.2554 84.269 55.3707C84.269 53.4552 83.5081 51.6182 82.1537 50.2638C80.7992 48.9093 78.9622 48.1484 77.0468 48.1484H52.9715C51.056 48.1484 49.219 48.9093 47.8646 50.2638C46.5102 51.6182 45.7493 53.4552 45.7493 55.3707C45.7493 56.2554 45.9298 57.0895 46.2223 57.8732C34.4573 64.467 26.4912 77.0373 26.4912 91.4818C26.4876 112.755 43.7343 130.001 65.0073 130.001C86.2804 130.001 103.527 112.755 103.527 91.4818C103.527 77.0373 95.5609 64.467 83.7959 57.8732Z" fill="#FFAC33"/>
<path d="M70.0703 67.1641H63.8556L53.9972 74.863C53.7673 75.1537 53.6268 75.505 53.5928 75.8741V80.128C53.5928 80.7996 54.1344 81.4063 54.8097 81.4063H61.2917V111.79C61.2917 112.469 61.8333 113.072 62.5736 113.072H70.0703C70.7419 113.072 71.2836 112.465 71.2836 111.79V68.4424C71.2836 67.7707 70.7456 67.1641 70.0703 67.1641Z" fill="#9E5200"/>
</g>
<defs>
<clipPath id="clip0_2481_2180">
<rect width="130" height="130" fill="white"/>
</clipPath>
</defs>
</svg>
