<svg width="18" height="22" viewBox="0 0 18 22" fill="none" xmlns="http://www.w3.org/2000/svg">
<path d="M2.778 15C1.666 15.633 1 16.439 1 17.316C1 19.35 4.582 21 9 21C13.418 21 17 19.35 17 17.316C17 16.439 16.334 15.633 15.222 15" stroke="#275DAD" stroke-width="1.5" stroke-linecap="round" stroke-linejoin="round"/>
<path d="M9.99776 6H8.00176C5.13176 6 3.19676 9.07 4.32776 11.828C4.40062 12.0127 4.52685 12.1716 4.69034 12.2843C4.85383 12.3971 5.04718 12.4586 5.24576 12.461H5.94876C6.18576 12.461 6.39276 12.631 6.44976 12.871L7.35476 16.657C7.54376 17.447 8.22176 18 8.99976 18C9.77776 18 10.4558 17.446 10.6448 16.657L11.5498 12.871C11.5746 12.7563 11.6375 12.6533 11.7283 12.5788C11.8191 12.5044 11.9324 12.4629 12.0498 12.461H12.7538C12.9523 12.4586 13.1457 12.3971 13.3092 12.2843C13.4727 12.1716 13.5989 12.0127 13.6718 11.828C14.8038 9.069 12.8678 6 9.99776 6Z" stroke="#275DAD" stroke-width="1.5" stroke-linecap="round" stroke-linejoin="round"/>
<path d="M11.5 3.5C11.5 4.16304 11.2366 4.79893 10.7678 5.26777C10.2989 5.73661 9.66304 6 9 6C8.33696 6 7.70107 5.73661 7.23223 5.26777C6.76339 4.79893 6.5 4.16304 6.5 3.5C6.5 2.83696 6.76339 2.20107 7.23223 1.73223C7.70107 1.26339 8.33696 1 9 1C9.66304 1 10.2989 1.26339 10.7678 1.73223C11.2366 2.20107 11.5 2.83696 11.5 3.5Z" stroke="#275DAD" stroke-width="1.5" stroke-linecap="round" stroke-linejoin="round"/>
</svg>
