<svg width="24" height="24" viewBox="0 0 24 24" fill="none" xmlns="http://www.w3.org/2000/svg">
<path d="M3 8C3 5.172 3 3.757 3.879 2.879C4.757 2 6.172 2 9 2H15C17.828 2 19.243 2 20.121 2.879C21 3.757 21 5.172 21 8V16C21 18.828 21 20.243 20.121 21.121C19.243 22 17.828 22 15 22H9C6.172 22 4.757 22 3.879 21.121C3 20.243 3 18.828 3 16V8Z" stroke="#275DAD" stroke-width="1.5"/>
<path d="M8 2.5V22M2 12H4M2 16H4M2 8H4M11.5 6.5H16.5M11.5 10H16.5" stroke="#275DAD" stroke-width="1.5" stroke-linecap="round"/>
</svg>
