<svg width="16" height="16" viewBox="0 0 16 16" fill="none" xmlns="http://www.w3.org/2000/svg">
<path fill-rule="evenodd" clip-rule="evenodd" d="M7.99935 1.33203C5.05402 1.33203 2.66602 4.0007 2.66602 6.9987C2.66602 9.97336 4.36802 13.2067 7.02402 14.448C7.32929 14.591 7.66226 14.6651 7.99935 14.6651C8.33644 14.6651 8.6694 14.591 8.97468 14.448C11.6307 13.2067 13.3327 9.97336 13.3327 6.9987C13.3327 4.0007 10.9447 1.33203 7.99935 1.33203ZM7.99935 7.9987C8.35297 7.9987 8.69211 7.85822 8.94216 7.60817C9.19221 7.35812 9.33268 7.01899 9.33268 6.66536C9.33268 6.31174 9.19221 5.9726 8.94216 5.72256C8.69211 5.47251 8.35297 5.33203 7.99935 5.33203C7.64573 5.33203 7.30659 5.47251 7.05654 5.72256C6.80649 5.9726 6.66602 6.31174 6.66602 6.66536C6.66602 7.01899 6.80649 7.35812 7.05654 7.60817C7.30659 7.85822 7.64573 7.9987 7.99935 7.9987Z" fill="#7A71D1"/>
</svg>
