<svg width="24" height="24" viewBox="0 0 24 24" fill="none" xmlns="http://www.w3.org/2000/svg">
<path d="M22.6667 22.0002C22.6667 22.3538 22.5262 22.6929 22.2761 22.943C22.0261 23.193 21.687 23.3335 21.3333 23.3335H19.3333C18.9797 23.3335 18.6406 23.193 18.3905 22.943C18.1405 22.6929 18 22.3538 18 22.0002V16.6668C18 16.3132 18.1405 15.9741 18.3905 15.724C18.6406 15.474 18.9797 15.3335 19.3333 15.3335H21.3333C21.687 15.3335 22.0261 15.474 22.2761 15.724C22.5262 15.9741 22.6667 16.3132 22.6667 16.6668V22.0002ZM6 22.0002C6 22.3538 5.85952 22.6929 5.60948 22.943C5.35943 23.193 5.02029 23.3335 4.66667 23.3335H2.66667C2.31304 23.3335 1.97391 23.193 1.72386 22.943C1.47381 22.6929 1.33333 22.3538 1.33333 22.0002V16.6668C1.33333 16.3132 1.47381 15.9741 1.72386 15.724C1.97391 15.474 2.31304 15.3335 2.66667 15.3335H4.66667C5.02029 15.3335 5.35943 15.474 5.60948 15.724C5.85952 15.9741 6 16.3132 6 16.6668V22.0002ZM3.33333 10.3335C3.33333 10.5987 3.22798 10.8531 3.04044 11.0406C2.8529 11.2281 2.59855 11.3335 2.33333 11.3335H1C0.734784 11.3335 0.48043 11.2281 0.292893 11.0406C0.105357 10.8531 0 10.5987 0 10.3335C0 10.0683 0.105357 9.81393 0.292893 9.62639C0.48043 9.43885 0.734784 9.3335 1 9.3335H2.33333C2.59855 9.3335 2.8529 9.43885 3.04044 9.62639C3.22798 9.81393 3.33333 10.0683 3.33333 10.3335ZM20.6667 10.3335C20.6667 10.5987 20.772 10.8531 20.9596 11.0406C21.1471 11.2281 21.4015 11.3335 21.6667 11.3335H23C23.2652 11.3335 23.5196 11.2281 23.7071 11.0406C23.8946 10.8531 24 10.5987 24 10.3335C24 10.0683 23.8946 9.81393 23.7071 9.62639C23.5196 9.43885 23.2652 9.3335 23 9.3335H21.6667C21.4015 9.3335 21.1471 9.43885 20.9596 9.62639C20.772 9.81393 20.6667 10.0683 20.6667 10.3335Z" fill="#66757F"/>
<path d="M6.00065 3.3335C8.66732 2.66683 15.334 2.66683 18.0007 3.3335C20.588 3.98016 21.334 10.6668 21.334 10.6668C21.334 10.6668 22.6673 10.6668 22.6673 13.3335V18.6668C22.6673 18.6668 22.6673 20.6668 20.6673 21.3335C18.06 22.2028 15.334 22.0002 12.0007 22.0002C8.66732 22.0002 5.94198 22.2028 3.33398 21.3335C1.33398 20.6668 1.33398 18.6668 1.33398 18.6668V13.3335C1.33398 13.3335 1.33398 10.6668 2.66732 10.6668C2.66732 10.6668 3.41398 3.98016 6.00065 3.3335Z" fill="#CCD6DD"/>
<path d="M12.0007 14C8.18865 14 4.57665 13.9326 1.33398 13.814V18.6666C1.33398 18.6666 1.33398 20.6666 3.33398 21.3333C5.94198 22.2026 8.66732 22 12.0007 22C15.334 22 18.06 22.2026 20.6673 21.3333C22.6673 20.6666 22.6673 18.6666 22.6673 18.6666V13.814C19.4247 13.9326 15.8127 14 12.0007 14Z" fill="#292F33"/>
<path d="M12 9.99984C14.6033 9.99984 17.7487 10.1332 20 10.3738L19.3333 6.6665C18.6667 4.6665 14.6667 4.6665 12 4.6665C9.33333 4.6665 5.33333 4.6665 4.66667 6.6665L4 10.3738C6.25133 10.1332 9.39667 9.99984 12 9.99984Z" fill="#55ACEE"/>
<path d="M7.99935 15.9998C7.99935 16.3535 7.85887 16.6926 7.60882 16.9426C7.35878 17.1927 7.01964 17.3332 6.66602 17.3332H3.99935C3.64573 17.3332 3.30659 17.1927 3.05654 16.9426C2.80649 16.6926 2.66602 16.3535 2.66602 15.9998C2.66602 15.6462 2.80649 15.3071 3.05654 15.057C3.30659 14.807 3.64573 14.6665 3.99935 14.6665H6.66602C7.01964 14.6665 7.35878 14.807 7.60882 15.057C7.85887 15.3071 7.99935 15.6462 7.99935 15.9998ZM15.9993 15.9998C15.9993 16.3535 16.1398 16.6926 16.3899 16.9426C16.6399 17.1927 16.9791 17.3332 17.3327 17.3332H19.9993C20.353 17.3332 20.6921 17.1927 20.9422 16.9426C21.1922 16.6926 21.3327 16.3535 21.3327 15.9998C21.3327 15.6462 21.1922 15.3071 20.9422 15.057C20.6921 14.807 20.353 14.6665 19.9993 14.6665H17.3327C16.9791 14.6665 16.6399 14.807 16.3899 15.057C16.1398 15.3071 15.9993 15.6462 15.9993 15.9998Z" fill="#CCD6DD"/>
<path d="M19.3327 19C19.3327 19.2652 19.2273 19.5196 19.0398 19.7071C18.8523 19.8946 18.5979 20 18.3327 20H5.66602C5.4008 20 5.14645 19.8946 4.95891 19.7071C4.77137 19.5196 4.66602 19.2652 4.66602 19C4.66602 18.7348 4.77137 18.4804 4.95891 18.2929C5.14645 18.1054 5.4008 18 5.66602 18H18.3327C18.5979 18 18.8523 18.1054 19.0398 18.2929C19.2273 18.4804 19.3327 18.7348 19.3327 19Z" fill="#66757F"/>
<path d="M7.99978 13.9998C7.89978 13.9998 7.79778 13.9771 7.70245 13.9298L3.70245 11.9298C3.54429 11.8507 3.42404 11.712 3.36816 11.5442C3.31227 11.3764 3.32532 11.1933 3.40445 11.0351C3.48357 10.877 3.62228 10.7567 3.79006 10.7009C3.95785 10.645 4.14096 10.658 4.29911 10.7371L8.29911 12.7371C8.43337 12.8044 8.54098 12.9151 8.6045 13.0512C8.66802 13.1873 8.68373 13.3408 8.64909 13.4869C8.61445 13.6331 8.53148 13.7632 8.41363 13.8563C8.29579 13.9494 8.14996 14 7.99978 13.9998ZM16.0011 13.9998C15.8507 14.0003 15.7045 13.9498 15.5864 13.8567C15.4683 13.7636 15.3851 13.6332 15.3504 13.4869C15.3158 13.3405 15.3316 13.1867 15.3954 13.0505C15.4592 12.9142 15.5672 12.8036 15.7018 12.7365L19.7018 10.7365C19.8599 10.6574 20.0431 10.6443 20.2108 10.7002C20.3786 10.7561 20.5173 10.8763 20.5964 11.0345C20.6756 11.1926 20.6886 11.3757 20.6327 11.5435C20.5769 11.7113 20.4566 11.85 20.2984 11.9291L16.2984 13.9291C16.2061 13.9754 16.1044 13.9996 16.0011 13.9998Z" fill="#99AAB5"/>
<path d="M12.0007 2.3335C12.0007 2.59871 11.8953 2.85307 11.7078 3.0406C11.5202 3.22814 11.2659 3.3335 11.0007 3.3335H6.33398C6.20266 3.3335 6.07263 3.30763 5.9513 3.25738C5.82998 3.20712 5.71974 3.13346 5.62688 3.0406C5.53402 2.94774 5.46036 2.83751 5.4101 2.71618C5.35985 2.59485 5.33398 2.46482 5.33398 2.3335C5.33398 2.20217 5.35985 2.07214 5.4101 1.95081C5.46036 1.82949 5.53402 1.71925 5.62688 1.62639C5.71974 1.53353 5.82998 1.45987 5.9513 1.40962C6.07263 1.35936 6.20266 1.3335 6.33398 1.3335H11.0007C11.2659 1.3335 11.5202 1.43885 11.7078 1.62639C11.8953 1.81393 12.0007 2.06828 12.0007 2.3335Z" fill="#DD2E44"/>
<path d="M18.6667 2.3335C18.6667 2.59871 18.5613 2.85307 18.3738 3.0406C18.1862 3.22814 17.9319 3.3335 17.6667 3.3335H13C12.8687 3.3335 12.7386 3.30763 12.6173 3.25738C12.496 3.20712 12.3858 3.13346 12.2929 3.0406C12.2 2.94774 12.1264 2.83751 12.0761 2.71618C12.0259 2.59485 12 2.46482 12 2.3335C12 2.20217 12.0259 2.07214 12.0761 1.95081C12.1264 1.82949 12.2 1.71925 12.2929 1.62639C12.3858 1.53353 12.496 1.45987 12.6173 1.40962C12.7386 1.35936 12.8687 1.3335 13 1.3335H17.6667C17.9319 1.3335 18.1862 1.43885 18.3738 1.62639C18.5613 1.81393 18.6667 2.06828 18.6667 2.3335Z" fill="#55ACEE"/>
<path d="M10.666 1.3335H13.3327V3.3335H10.666V1.3335Z" fill="#F5F8FA"/>
</svg>
