<svg width="310" height="310" viewBox="0 0 310 310" fill="none" xmlns="http://www.w3.org/2000/svg">
<path d="M280.135 155C280.137 136.494 275.997 118.221 268.018 101.523C260.039 84.8248 248.424 70.1244 234.024 58.4997C219.624 46.8751 202.805 38.621 184.8 34.3429C166.794 30.0648 148.06 29.8712 129.97 33.7762C111.88 37.6812 94.8938 45.5858 80.2566 56.9103C65.6195 68.2348 53.7027 82.692 45.3804 99.2216C37.058 115.751 32.5411 133.934 32.1609 152.437C31.7807 170.939 35.5469 189.292 43.1832 206.15H269.08C276.376 190.085 280.145 172.644 280.135 155Z" fill="#B8ECFF"/>
<path d="M43.1836 206.15C53.019 227.862 68.9037 246.28 88.9361 259.197C108.968 272.114 132.299 278.984 156.135 278.984C179.971 278.984 203.302 272.114 223.334 259.197C243.367 246.28 259.251 227.862 269.087 206.15H43.1836Z" fill="#ADC4D9"/>
<path d="M35.2344 206.15H277.034" stroke="#45413C" stroke-linecap="round" stroke-linejoin="round"/>
<path d="M21.2852 206.15H29.0352" stroke="#45413C" stroke-linecap="round" stroke-linejoin="round"/>
<path d="M283.234 206.15H290.984" stroke="#45413C" stroke-linecap="round" stroke-linejoin="round"/>
<path d="M199.535 238.7H221.719" stroke="#E0E0E0" stroke-linecap="round"/>
<path d="M186.592 238.7H192.138" stroke="#E0E0E0" stroke-linecap="round"/>
<path d="M177.348 238.7H179.198" stroke="#E0E0E0" stroke-linecap="round"/>
<path d="M107.018 227.85H129.204" stroke="#E0E0E0" stroke-linecap="round"/>
<path d="M94.0781 227.85H99.624" stroke="#E0E0E0" stroke-linecap="round"/>
<path d="M84.834 227.85H86.6816" stroke="#E0E0E0" stroke-linecap="round"/>
<path d="M141.697 261.95H163.884" stroke="#E0E0E0" stroke-linecap="round"/>
<path d="M128.756 261.95H134.305" stroke="#E0E0E0" stroke-linecap="round"/>
<path d="M119.512 261.95H121.362" stroke="#E0E0E0" stroke-linecap="round"/>
<path d="M261.968 144.578C264.76 146.006 267.852 146.749 270.989 146.748H288.262C290.226 146.748 292.109 147.528 293.498 148.916C294.886 150.304 295.667 152.187 295.668 154.151V163.395C295.668 164.553 295.929 165.697 296.43 166.741C296.932 167.785 297.662 168.703 298.566 169.427L301.437 171.721C302.524 172.592 303.401 173.696 304.004 174.952C304.608 176.208 304.921 177.583 304.921 178.975V185.737C304.923 188.767 303.808 191.691 301.79 193.952C299.772 196.212 296.992 197.65 293.981 197.991C283.132 199.231 266.512 201.119 254.946 202.275H13.2579C12.1835 202.275 11.1197 202.063 10.1272 201.652C9.13462 201.241 8.23276 200.639 7.47309 199.879C6.71343 199.119 6.11083 198.217 5.6997 197.225C5.28857 196.232 5.07696 195.168 5.07696 194.094V183.985C5.04626 180.461 5.90934 176.987 7.58559 173.887C9.26183 170.787 11.6965 168.163 14.6622 166.259C21.9805 162.005 30.0284 159.154 38.3927 157.852C52.9677 155.071 67.7138 153.276 82.5305 152.48C86.2665 152.307 89.8562 150.976 92.8008 148.67C102.432 141.146 126.123 124.536 147.596 124.536H186.464C213.825 124.536 244.344 135.597 261.968 144.578Z" fill="#E0E0E0"/>
<path d="M14.6622 171.811C21.9805 167.557 30.0284 164.706 38.3927 163.404C52.9679 160.624 67.7139 158.829 82.5305 158.032C86.2669 157.861 89.857 156.529 92.8008 154.222C102.432 146.698 126.123 130.088 147.596 130.088H186.464C213.825 130.088 244.344 141.149 261.968 150.13C264.76 151.558 267.852 152.301 270.989 152.3H288.265C289.237 152.3 290.2 152.491 291.099 152.864C291.997 153.236 292.813 153.781 293.501 154.469C294.188 155.157 294.733 155.973 295.105 156.872C295.477 157.77 295.668 158.733 295.668 159.706V154.151C295.668 152.187 294.888 150.304 293.5 148.916C292.111 147.528 290.228 146.748 288.265 146.748H270.989C267.852 146.749 264.76 146.006 261.968 144.578C244.344 135.588 213.825 124.536 186.464 124.536H147.596C126.123 124.536 102.432 141.146 92.8008 148.67C89.8562 150.976 86.2666 152.307 82.5305 152.48C67.7138 153.275 52.9677 155.07 38.3927 157.852C30.029 159.155 21.9814 162.005 14.6622 166.256C11.6965 168.16 9.26184 170.785 7.58562 173.886C5.90941 176.986 5.04632 180.461 5.07698 183.985V189.537C5.04598 186.013 5.90894 182.539 7.58521 179.439C9.26148 176.339 11.6963 173.715 14.6622 171.811Z" fill="white"/>
<path d="M301.437 171.721L298.566 169.427C297.662 168.703 296.932 167.785 296.43 166.741C295.929 165.697 295.668 164.553 295.668 163.395V168.95C295.668 170.108 295.929 171.252 296.43 172.296C296.932 173.341 297.662 174.259 298.566 174.983L301.437 177.277C302.524 178.148 303.401 179.252 304.005 180.507C304.608 181.763 304.921 183.138 304.921 184.531V178.975C304.921 177.583 304.608 176.208 304.005 174.952C303.401 173.696 302.524 172.592 301.437 171.721Z" fill="white"/>
<path d="M261.968 144.578C264.76 146.006 267.852 146.749 270.989 146.748H288.262C290.226 146.748 292.109 147.528 293.498 148.916C294.886 150.304 295.667 152.187 295.668 154.151V163.395C295.668 164.553 295.929 165.697 296.43 166.741C296.932 167.785 297.662 168.703 298.566 169.427L301.437 171.721C302.524 172.592 303.401 173.696 304.004 174.952C304.608 176.208 304.921 177.583 304.921 178.975V185.737C304.923 188.767 303.808 191.691 301.79 193.952C299.772 196.212 296.992 197.65 293.981 197.991C283.131 199.231 266.512 201.119 254.946 202.275H13.2579C12.1835 202.275 11.1197 202.063 10.1272 201.652C9.13462 201.241 8.23276 200.639 7.47309 199.879C6.71343 199.119 6.11083 198.217 5.6997 197.225C5.28857 196.232 5.07696 195.168 5.07696 194.094V183.985C5.04626 180.461 5.90934 176.987 7.58559 173.887C9.26183 170.787 11.6965 168.163 14.6622 166.259C21.9805 162.005 30.0284 159.154 38.3927 157.852C52.9677 155.071 67.7138 153.276 82.5305 152.48C86.2666 152.307 89.8562 150.976 92.8008 148.67C102.432 141.146 126.123 124.536 147.596 124.536H186.464C213.825 124.536 244.344 135.597 261.968 144.578Z" stroke="#45413C" stroke-linecap="round" stroke-linejoin="round"/>
<path d="M52.1923 167.109H272.252C272.654 167.109 273.046 167.228 273.38 167.452C273.714 167.675 273.974 167.992 274.128 168.363C274.282 168.734 274.323 169.143 274.245 169.537C274.167 169.931 273.974 170.293 273.69 170.577L270.352 173.91C270.163 174.099 269.939 174.249 269.692 174.351C269.445 174.453 269.18 174.505 268.913 174.505H48.8536C48.4519 174.505 48.0594 174.385 47.7254 174.162C47.3915 173.939 47.1312 173.622 46.9774 173.251C46.8235 172.879 46.783 172.471 46.8609 172.077C46.9388 171.683 47.1317 171.321 47.4152 171.036L50.7539 167.71C50.9423 167.52 51.1664 167.369 51.4132 167.266C51.66 167.163 51.9248 167.109 52.1923 167.109Z" fill="#009FD9" stroke="#45413C" stroke-linecap="round" stroke-linejoin="round"/>
<path d="M42.0957 193.018C42.0957 198.418 44.2409 203.597 48.0592 207.416C51.8776 211.234 57.0565 213.379 62.4565 213.379C67.8565 213.379 73.0354 211.234 76.8538 207.416C80.6722 203.597 82.8173 198.418 82.8173 193.018C82.8173 187.618 80.6722 182.44 76.8538 178.621C73.0354 174.803 67.8565 172.658 62.4565 172.658C57.0565 172.658 51.8776 174.803 48.0592 178.621C44.2409 182.44 42.0957 187.618 42.0957 193.018Z" fill="#45413C"/>
<path d="M62.4565 178.213C67.3729 178.214 72.1226 179.995 75.827 183.228C79.5314 186.46 81.9397 190.925 82.6065 195.796C83.0257 192.905 82.8181 189.959 81.9978 187.155C81.1775 184.352 79.7637 181.758 77.8523 179.55C75.941 177.341 73.5768 175.57 70.9203 174.355C68.2639 173.141 65.3773 172.513 62.4565 172.513C59.5357 172.513 56.6491 173.141 53.9927 174.355C51.3362 175.57 48.972 177.341 47.0607 179.55C45.1493 181.758 43.7355 184.352 42.9152 187.155C42.0949 189.959 41.8873 192.905 42.3065 195.796C42.9739 190.925 45.3825 186.461 49.0867 183.229C52.7909 179.996 57.5403 178.214 62.4565 178.213Z" fill="#87898C"/>
<path d="M49.5 193.018C49.5 196.454 50.8649 199.749 53.2944 202.179C55.7239 204.608 59.019 205.973 62.4549 205.973C65.8907 205.973 69.1859 204.608 71.6154 202.179C74.0449 199.749 75.4098 196.454 75.4098 193.018C75.4098 189.583 74.0449 186.287 71.6154 183.858C69.1859 181.428 65.8907 180.063 62.4549 180.063C59.019 180.063 55.7239 181.428 53.2944 183.858C50.8649 186.287 49.5 189.583 49.5 193.018Z" fill="#E0E0E0"/>
<path d="M55.0527 194.869C55.0527 196.832 55.8327 198.715 57.221 200.104C58.6093 201.492 60.4922 202.272 62.4555 202.272C64.4189 202.272 66.3018 201.492 67.6901 200.104C69.0784 198.715 69.8583 196.832 69.8583 194.869C69.8583 192.906 69.0784 191.023 67.6901 189.635C66.3018 188.246 64.4189 187.466 62.4555 187.466C60.4922 187.466 58.6093 188.246 57.221 189.635C55.8327 191.023 55.0527 192.906 55.0527 194.869Z" fill="#BDBEC0"/>
<path d="M62.456 185.616C65.4079 185.618 68.2704 186.628 70.5695 188.48C72.8686 190.331 74.4662 192.913 75.0978 195.796C75.5245 193.9 75.5193 191.932 75.0826 190.039C74.6458 188.145 73.7887 186.374 72.5748 184.856C71.3608 183.339 69.821 182.114 68.0695 181.272C66.3179 180.43 64.3994 179.993 62.456 179.993C60.5127 179.993 58.5942 180.43 56.8426 181.272C55.0911 182.114 53.5513 183.339 52.3373 184.856C51.1234 186.374 50.2663 188.145 49.8295 190.039C49.3928 191.932 49.3876 193.9 49.8142 195.796C50.4459 192.913 52.0435 190.331 54.3426 188.48C56.6417 186.628 59.5042 185.618 62.456 185.616Z" fill="#BDBEC0"/>
<path d="M56.9043 193.018C56.9043 194.491 57.4892 195.903 58.5305 196.944C59.5717 197.986 60.9839 198.571 62.4564 198.571C63.9289 198.571 65.3411 197.986 66.3823 196.944C67.4235 195.903 68.0085 194.491 68.0085 193.018C68.0085 191.546 67.4235 190.134 66.3823 189.092C65.3411 188.051 63.9289 187.466 62.4564 187.466C60.9839 187.466 59.5717 188.051 58.5305 189.092C57.4892 190.134 56.9043 191.546 56.9043 193.018Z" fill="#F8F8F8"/>
<path d="M62.4564 192.095C63.5176 192.096 64.5561 192.402 65.4486 192.976C66.341 193.55 67.0498 194.369 67.4908 195.334C67.8842 194.488 68.0581 193.556 67.9963 192.625C67.9346 191.694 67.6392 190.794 67.1374 190.007C66.6357 189.221 65.9438 188.573 65.1256 188.125C64.3075 187.676 63.3894 187.441 62.4564 187.441C61.5233 187.441 60.6053 187.676 59.7872 188.125C58.969 188.573 58.2771 189.221 57.7754 190.007C57.2736 190.794 56.9782 191.694 56.9165 192.625C56.8547 193.556 57.0286 194.488 57.422 195.334C57.863 194.369 58.5718 193.55 59.4642 192.976C60.3567 192.402 61.3952 192.096 62.4564 192.095Z" fill="white"/>
<path d="M42.0957 193.018C42.0957 198.418 44.2409 203.597 48.0592 207.416C51.8776 211.234 57.0565 213.379 62.4565 213.379C67.8565 213.379 73.0354 211.234 76.8538 207.416C80.6722 203.597 82.8173 198.418 82.8173 193.018C82.8173 187.618 80.6722 182.44 76.8538 178.621C73.0354 174.803 67.8565 172.658 62.4565 172.658C57.0565 172.658 51.8776 174.803 48.0592 178.621C44.2409 182.44 42.0957 187.618 42.0957 193.018Z" stroke="#45413C" stroke-linecap="round" stroke-linejoin="round"/>
<path d="M49.5 193.018C49.5 196.454 50.8649 199.749 53.2944 202.179C55.7239 204.608 59.019 205.973 62.4549 205.973C65.8907 205.973 69.1859 204.608 71.6154 202.179C74.0449 199.749 75.4098 196.454 75.4098 193.018C75.4098 189.583 74.0449 186.287 71.6154 183.858C69.1859 181.428 65.8907 180.063 62.4549 180.063C59.019 180.063 55.7239 181.428 53.2944 183.858C50.8649 186.287 49.5 189.583 49.5 193.018Z" stroke="#45413C" stroke-linecap="round" stroke-linejoin="round"/>
<path d="M56.9043 193.018C56.9043 194.491 57.4892 195.903 58.5305 196.944C59.5717 197.986 60.9839 198.571 62.4564 198.571C63.9289 198.571 65.3411 197.986 66.3823 196.944C67.4235 195.903 68.0085 194.491 68.0085 193.018C68.0085 191.546 67.4235 190.134 66.3823 189.092C65.3411 188.051 63.9289 187.466 62.4564 187.466C60.9839 187.466 59.5717 188.051 58.5305 189.092C57.4892 190.134 56.9043 191.546 56.9043 193.018Z" stroke="#45413C" stroke-linecap="round" stroke-linejoin="round"/>
<path d="M217.93 193.018C217.93 198.418 220.075 203.597 223.893 207.416C227.712 211.234 232.89 213.379 238.29 213.379C243.69 213.379 248.869 211.234 252.688 207.416C256.506 203.597 258.651 198.418 258.651 193.018C258.651 187.618 256.506 182.44 252.688 178.621C248.869 174.803 243.69 172.658 238.29 172.658C232.89 172.658 227.712 174.803 223.893 178.621C220.075 182.44 217.93 187.618 217.93 193.018Z" fill="#45413C"/>
<path d="M238.291 178.213C243.207 178.214 247.957 179.995 251.661 183.228C255.366 186.46 257.774 190.925 258.441 195.796C258.577 194.872 258.649 193.94 258.655 193.006C258.673 190.203 258.112 187.427 257.007 184.852C255.902 182.276 254.278 179.956 252.235 178.037C250.193 176.118 247.776 174.642 245.137 173.7C242.497 172.758 239.691 172.371 236.895 172.564C234.099 172.756 231.373 173.524 228.888 174.819C226.402 176.114 224.211 177.908 222.451 180.088C220.69 182.269 219.399 184.79 218.658 187.493C217.917 190.196 217.742 193.022 218.144 195.796C218.811 190.926 221.219 186.462 224.923 183.23C228.627 179.997 233.375 178.215 238.291 178.213Z" fill="#87898C"/>
<path d="M225.336 193.018C225.336 196.454 226.701 199.749 229.13 202.179C231.56 204.608 234.855 205.973 238.291 205.973C241.727 205.973 245.022 204.608 247.451 202.179C249.881 199.749 251.246 196.454 251.246 193.018C251.246 189.583 249.881 186.287 247.451 183.858C245.022 181.428 241.727 180.063 238.291 180.063C234.855 180.063 231.56 181.428 229.13 183.858C226.701 186.287 225.336 189.583 225.336 193.018Z" fill="#E0E0E0"/>
<path d="M230.889 194.869C230.889 196.832 231.669 198.715 233.057 200.104C234.445 201.492 236.328 202.272 238.291 202.272C240.255 202.272 242.138 201.492 243.526 200.104C244.914 198.715 245.694 196.832 245.694 194.869C245.694 192.906 244.914 191.023 243.526 189.635C242.138 188.246 240.255 187.466 238.291 187.466C236.328 187.466 234.445 188.246 233.057 189.635C231.669 191.023 230.889 192.906 230.889 194.869Z" fill="#BDBEC0"/>
<path d="M238.29 185.616C241.242 185.618 244.104 186.628 246.403 188.48C248.703 190.331 250.3 192.913 250.932 195.796C251.359 193.9 251.353 191.932 250.917 190.039C250.48 188.145 249.623 186.374 248.409 184.856C247.195 183.339 245.655 182.114 243.903 181.272C242.152 180.43 240.233 179.993 238.29 179.993C236.347 179.993 234.428 180.43 232.677 181.272C230.925 182.114 229.385 183.339 228.171 184.856C226.957 186.374 226.1 188.145 225.664 190.039C225.227 191.932 225.222 193.9 225.648 195.796C226.28 192.913 227.878 190.331 230.177 188.48C232.476 186.628 235.338 185.618 238.29 185.616Z" fill="#BDBEC0"/>
<path d="M232.738 193.018C232.738 194.491 233.323 195.903 234.364 196.944C235.406 197.986 236.818 198.571 238.29 198.571C239.763 198.571 241.175 197.986 242.216 196.944C243.258 195.903 243.842 194.491 243.842 193.018C243.842 191.546 243.258 190.134 242.216 189.092C241.175 188.051 239.763 187.466 238.29 187.466C236.818 187.466 235.406 188.051 234.364 189.092C233.323 190.134 232.738 191.546 232.738 193.018Z" fill="#F8F8F8"/>
<path d="M238.29 192.095C239.352 192.096 240.39 192.402 241.283 192.976C242.175 193.55 242.884 194.369 243.325 195.334C243.718 194.488 243.892 193.556 243.83 192.625C243.769 191.694 243.473 190.794 242.971 190.007C242.47 189.221 241.778 188.573 240.96 188.125C240.141 187.676 239.223 187.441 238.29 187.441C237.357 187.441 236.439 187.676 235.621 188.125C234.803 188.573 234.111 189.221 233.609 190.007C233.108 190.794 232.812 191.694 232.75 192.625C232.689 193.556 232.863 194.488 233.256 195.334C233.697 194.369 234.406 193.55 235.298 192.976C236.191 192.402 237.229 192.096 238.29 192.095Z" fill="white"/>
<path d="M217.93 193.018C217.93 198.418 220.075 203.597 223.893 207.416C227.712 211.234 232.89 213.379 238.29 213.379C243.69 213.379 248.869 211.234 252.688 207.416C256.506 203.597 258.651 198.418 258.651 193.018C258.651 187.618 256.506 182.44 252.688 178.621C248.869 174.803 243.69 172.658 238.29 172.658C232.89 172.658 227.712 174.803 223.893 178.621C220.075 182.44 217.93 187.618 217.93 193.018Z" stroke="#45413C" stroke-linecap="round" stroke-linejoin="round"/>
<path d="M225.336 193.018C225.336 196.454 226.701 199.749 229.13 202.179C231.56 204.608 234.855 205.973 238.291 205.973C241.727 205.973 245.022 204.608 247.451 202.179C249.881 199.749 251.246 196.454 251.246 193.018C251.246 189.583 249.881 186.287 247.451 183.858C245.022 181.428 241.727 180.063 238.291 180.063C234.855 180.063 231.56 181.428 229.13 183.858C226.701 186.287 225.336 189.583 225.336 193.018Z" stroke="#45413C" stroke-linecap="round" stroke-linejoin="round"/>
<path d="M232.738 193.018C232.738 194.491 233.323 195.903 234.364 196.944C235.406 197.986 236.818 198.571 238.29 198.571C239.763 198.571 241.175 197.986 242.216 196.944C243.258 195.903 243.842 194.491 243.842 193.018C243.842 191.546 243.258 190.134 242.216 189.092C241.175 188.051 239.763 187.466 238.29 187.466C236.818 187.466 235.406 188.051 234.364 189.092C233.323 190.134 232.738 191.546 232.738 193.018Z" stroke="#45413C" stroke-linecap="round" stroke-linejoin="round"/>
<path d="M228.687 152.362C229.373 152.342 230.045 152.168 230.654 151.853C231.264 151.537 231.794 151.088 232.205 150.539L232.915 149.609C233.356 149.02 233.659 148.339 233.801 147.616C233.942 146.894 233.919 146.149 233.733 145.437C233.548 144.725 233.204 144.064 232.727 143.503C232.25 142.942 231.654 142.496 230.981 142.197C215.79 135.487 199.371 132.004 182.763 131.967H145.746C138.34 131.967 119.833 137.522 99.4727 156.029L228.687 152.362Z" fill="#00B8F0"/>
<path d="M215.652 152.731L227.63 140.74C221.025 138.072 214.196 135.997 207.223 134.54L213.733 152.79L215.652 152.731Z" fill="#4ACFFF"/>
<path d="M193.326 132.485C189.916 132.175 186.438 131.939 182.764 131.939H167.574L160.875 154.259L171.833 153.949L193.326 132.485Z" fill="#4ACFFF"/>
<path d="M99.4727 156.001L124.232 155.304L147.597 131.939H145.737C138.34 131.939 119.833 137.494 99.4727 156.001Z" fill="#4ACFFF"/>
<path d="M228.687 152.362C229.373 152.342 230.045 152.168 230.654 151.853C231.264 151.537 231.794 151.088 232.205 150.539L232.915 149.609C233.356 149.02 233.659 148.339 233.801 147.616C233.942 146.894 233.919 146.149 233.733 145.437C233.548 144.725 233.204 144.064 232.727 143.503C232.25 142.942 231.654 142.496 230.981 142.197C215.79 135.487 199.371 132.004 182.763 131.967H145.746C138.34 131.967 119.833 137.522 99.4727 156.029L228.687 152.362Z" stroke="#45413C" stroke-linecap="round" stroke-linejoin="round"/>
<path d="M158.617 154.337L167.182 154.095L172.601 131.939H164.095L158.617 154.337Z" fill="#87898C"/>
<path d="M158.617 154.337L167.182 154.095L172.601 131.939H164.095L158.617 154.337Z" stroke="#45413C" stroke-linecap="round" stroke-linejoin="round"/>
<path d="M209.175 152.911L217.424 152.681L211.729 135.566C208.939 134.866 205.939 134.224 202.773 133.678L209.175 152.911Z" fill="#87898C"/>
<path d="M209.175 152.911L217.424 152.681L211.729 135.566C208.939 134.866 205.939 134.224 202.773 133.678L209.175 152.911Z" stroke="#45413C" stroke-linecap="round" stroke-linejoin="round"/>
<path d="M99.4728 156.001C96.9669 163.136 95.7146 170.651 95.7714 178.213C95.7714 182.153 95.9419 185.237 96.1806 187.621C96.3904 189.617 97.3341 191.464 98.8286 192.803C100.323 194.142 102.262 194.879 104.268 194.869H190.631C193.691 194.87 196.694 194.036 199.316 192.458C201.937 190.88 204.079 188.618 205.511 185.913L215.261 167.493C216.685 164.809 217.43 161.817 217.431 158.779V152.681" stroke="#45413C" stroke-linecap="round" stroke-linejoin="round"/>
<path d="M163.163 154.206C161.6 160.868 160.726 167.672 160.553 174.511V194.869" stroke="#45413C" stroke-linecap="round" stroke-linejoin="round"/>
<path d="M6.47266 176.362H28.3339C29.1626 176.362 29.9807 176.176 30.7277 175.817C31.4746 175.458 32.1313 174.935 32.6491 174.288L35.3182 170.953C35.6418 170.547 35.8566 170.066 35.9422 169.555C36.0277 169.043 35.9812 168.518 35.807 168.03C35.6328 167.542 35.3367 167.106 34.9468 166.764C34.5569 166.422 34.0861 166.185 33.5791 166.076L20.3762 163.246C18.4069 164.121 16.4982 165.127 14.6629 166.256C10.9014 168.639 8.02445 172.189 6.47266 176.362Z" fill="#FFE500"/>
<path d="M27.7232 164.821L20.3762 163.246C18.4069 164.121 16.4982 165.127 14.6629 166.256C10.9014 168.639 8.02445 172.189 6.47266 176.362H16.1819L27.7232 164.821Z" fill="#FFF48C"/>
<path d="M6.47266 176.362H28.3339C29.1626 176.362 29.9807 176.176 30.7277 175.817C31.4746 175.458 32.1313 174.935 32.6491 174.288L35.3182 170.953C35.6418 170.547 35.8566 170.066 35.9422 169.555C36.0277 169.043 35.9812 168.518 35.807 168.03C35.6328 167.542 35.3367 167.106 34.9468 166.764C34.5569 166.422 34.0861 166.185 33.5791 166.076L20.3762 163.246C18.4069 164.121 16.4982 165.127 14.6629 166.256C10.9014 168.639 8.02445 172.189 6.47266 176.362Z" stroke="#45413C" stroke-linecap="round" stroke-linejoin="round"/>
<path d="M116.133 167.124C116.133 166.138 116.525 165.191 117.222 164.494C117.92 163.796 118.866 163.404 119.853 163.404H134.646C135.624 163.405 136.562 163.793 137.255 164.484C137.947 165.175 138.338 166.112 138.341 167.09V175.77C138.341 176.529 138.174 177.278 137.853 177.965C137.531 178.652 137.063 179.261 136.481 179.747L130.551 184.686C129.621 185.462 128.448 185.888 127.237 185.888C126.026 185.888 124.853 185.462 123.923 184.686L117.993 179.747C117.411 179.261 116.943 178.652 116.621 177.965C116.3 177.278 116.133 176.529 116.133 175.77V167.124Z" fill="#87898C"/>
<path d="M134.642 163.404H119.849C118.862 163.404 117.916 163.796 117.218 164.494C116.521 165.191 116.129 166.138 116.129 167.124V172.67C116.129 171.683 116.521 170.737 117.218 170.04C117.916 169.342 118.862 168.95 119.849 168.95H134.642C135.13 168.95 135.612 169.046 136.062 169.234C136.513 169.421 136.921 169.695 137.265 170.041C137.609 170.387 137.881 170.797 138.065 171.248C138.25 171.699 138.343 172.183 138.34 172.67V167.09C138.337 166.111 137.946 165.174 137.253 164.483C136.56 163.792 135.621 163.404 134.642 163.404Z" fill="#BDBEC0"/>
<path d="M116.133 167.124C116.133 166.138 116.525 165.191 117.222 164.494C117.92 163.796 118.866 163.404 119.853 163.404H134.646C135.624 163.405 136.562 163.793 137.255 164.484C137.947 165.175 138.338 166.112 138.341 167.09V175.77C138.341 176.529 138.174 177.278 137.853 177.965C137.531 178.652 137.063 179.261 136.481 179.747L130.551 184.686C129.621 185.462 128.448 185.888 127.237 185.888C126.026 185.888 124.853 185.462 123.923 184.686L117.993 179.747C117.411 179.261 116.943 178.652 116.621 177.965C116.3 177.278 116.133 176.529 116.133 175.77V167.124Z" stroke="#45413C" stroke-linecap="round" stroke-linejoin="round"/>
<path d="M295.668 163.395V154.151C295.668 152.187 294.888 150.304 293.5 148.916C292.112 147.528 290.229 146.748 288.265 146.748H287.193L283.507 159.439C283.221 160.066 283.098 160.754 283.147 161.441C283.197 162.127 283.418 162.791 283.791 163.37C284.164 163.949 284.676 164.425 285.281 164.754C285.886 165.083 286.563 165.256 287.252 165.255H295.91C295.755 164.647 295.673 164.022 295.668 163.395Z" fill="#FF6242"/>
<path d="M288.267 152.3C289.239 152.3 290.202 152.491 291.1 152.864C291.999 153.236 292.815 153.781 293.502 154.469C294.19 155.157 294.735 155.973 295.107 156.872C295.479 157.77 295.67 158.733 295.669 159.706V154.151C295.669 152.187 294.89 150.304 293.501 148.916C292.113 147.528 290.23 146.748 288.267 146.748H287.194L285.582 152.3H288.267Z" fill="#FF6242"/>
<path d="M295.668 163.395V154.151C295.668 152.187 294.888 150.304 293.5 148.916C292.112 147.528 290.229 146.748 288.265 146.748H287.193L283.507 159.439C283.221 160.066 283.098 160.754 283.147 161.441C283.197 162.127 283.418 162.791 283.791 163.37C284.164 163.949 284.676 164.425 285.281 164.754C285.886 165.083 286.563 165.256 287.252 165.255H295.91C295.755 164.647 295.673 164.022 295.668 163.395Z" stroke="#45413C" stroke-linecap="round" stroke-linejoin="round"/>
<path d="M175.362 113.432H162.404C160.931 113.432 159.519 114.017 158.478 115.058C157.437 116.099 156.852 117.512 156.852 118.984C156.852 120.457 157.437 121.869 158.478 122.91C159.519 123.951 160.931 124.536 162.404 124.536H175.362C176.834 124.536 178.246 123.951 179.288 122.91C180.329 121.869 180.914 120.457 180.914 118.984C180.914 117.512 180.329 116.099 179.288 115.058C178.246 114.017 176.834 113.432 175.362 113.432Z" fill="#A6FBFF"/>
<path d="M162.403 118.984H175.361C176.333 118.988 177.287 119.248 178.127 119.738C178.967 120.228 179.663 120.93 180.144 121.774C180.641 120.934 180.907 119.977 180.913 119C180.919 118.024 180.666 117.063 180.179 116.217C179.693 115.37 178.991 114.668 178.144 114.181C177.298 113.695 176.338 113.442 175.361 113.448H162.403C161.427 113.442 160.466 113.695 159.62 114.181C158.773 114.668 158.071 115.37 157.585 116.217C157.099 117.063 156.846 118.024 156.852 119C156.858 119.977 157.123 120.934 157.62 121.774C158.102 120.93 158.798 120.228 159.637 119.738C160.477 119.248 161.431 118.988 162.403 118.984Z" fill="#E5FEFF"/>
<path d="M175.362 113.432H162.404C160.931 113.432 159.519 114.017 158.478 115.058C157.437 116.099 156.852 117.512 156.852 118.984C156.852 120.457 157.437 121.869 158.478 122.91C159.519 123.951 160.931 124.536 162.404 124.536H175.362C176.834 124.536 178.246 123.951 179.288 122.91C180.329 121.869 180.914 120.457 180.914 118.984C180.914 117.512 180.329 116.099 179.288 115.058C178.246 114.017 176.834 113.432 175.362 113.432Z" stroke="#45413C" stroke-linecap="round" stroke-linejoin="round"/>
<path d="M21.0152 190.65C21.1661 190.3 21.2272 189.919 21.193 189.539C21.1588 189.16 21.0304 188.796 20.8194 188.479C20.6084 188.162 20.3215 187.902 19.9849 187.725C19.6482 187.547 19.2725 187.456 18.8917 187.46H5.07812V194.088C5.07812 194.351 5.13082 194.606 5.15562 194.863H14.3316C15.7297 194.863 17.0994 194.468 18.2821 193.722C19.4649 192.977 20.4124 191.911 21.0152 190.65Z" fill="#87898C" stroke="#45413C" stroke-linecap="round" stroke-linejoin="round"/>
</svg>
