<svg width="24" height="24" viewBox="0 0 24 24" fill="none" xmlns="http://www.w3.org/2000/svg">
<path fill-rule="evenodd" clip-rule="evenodd" d="M12.4277 2C11.3137 2 10.2987 2.6 8.27073 3.802L7.58473 4.208C5.55473 5.41 4.54173 6.011 3.98473 7C3.42773 7.99 3.42773 9.19 3.42773 11.594V12.406C3.42773 14.809 3.42773 16.011 3.98473 17C4.54173 17.989 5.55473 18.59 7.58473 19.791L8.27073 20.198C10.2987 21.399 11.3137 22 12.4277 22C13.5417 22 14.5557 21.4 16.5847 20.198L17.2707 19.791C19.2987 18.591 20.3137 17.989 20.8707 17C21.4277 16.01 21.4277 14.81 21.4277 12.406V11.594C21.4277 9.191 21.4277 7.989 20.8707 7C20.3137 6.011 19.2987 5.41 17.2707 4.208L16.5847 3.802C14.5547 2.601 13.5417 2 12.4277 2ZM8.67773 12C8.67773 11.0054 9.07282 10.0516 9.77608 9.34835C10.4793 8.64509 11.4332 8.25 12.4277 8.25C13.4223 8.25 14.3761 8.64509 15.0794 9.34835C15.7826 10.0516 16.1777 11.0054 16.1777 12C16.1777 12.9946 15.7826 13.9484 15.0794 14.6517C14.3761 15.3549 13.4223 15.75 12.4277 15.75C11.4332 15.75 10.4793 15.3549 9.77608 14.6517C9.07282 13.9484 8.67773 12.9946 8.67773 12Z" fill="#7C8293"/>
</svg>
