<svg width="20" height="17" viewBox="0 0 20 17" fill="none" xmlns="http://www.w3.org/2000/svg">
<path d="M19 4.00053L17 6.00053L15.5 2.30053C15.3585 1.92186 15.1057 1.59495 14.7747 1.36288C14.4437 1.13081 14.0502 1.00448 13.646 1.00053H6.4C5.9925 0.991168 5.59188 1.10654 5.25177 1.33119C4.91166 1.55585 4.64832 1.87905 4.497 2.25753L3 6.00053L1 4.00053M5 10.0005H5.01M15 10.0005H15.01" stroke="#275DAD" stroke-width="1.5" stroke-linecap="round" stroke-linejoin="round"/>
<path d="M17 6H3C1.89543 6 1 6.89543 1 8V12C1 13.1046 1.89543 14 3 14H17C18.1046 14 19 13.1046 19 12V8C19 6.89543 18.1046 6 17 6Z" stroke="#275DAD" stroke-width="1.5" stroke-linecap="round" stroke-linejoin="round"/>
<path d="M3 14V16M17 14V16" stroke="#275DAD" stroke-width="2" stroke-linecap="round" stroke-linejoin="round"/>
</svg>
