<svg width="16" height="16" viewBox="0 0 16 16" fill="none" xmlns="http://www.w3.org/2000/svg">
<path d="M7.99947 6.66536C8.70671 6.66536 9.38499 6.38441 9.88509 5.88432C10.3852 5.38422 10.6661 4.70594 10.6661 3.9987C10.6661 3.29145 10.3852 2.61318 9.88509 2.11308C9.38499 1.61298 8.70671 1.33203 7.99947 1.33203C7.29223 1.33203 6.61395 1.61298 6.11385 2.11308C5.61375 2.61318 5.3328 3.29145 5.3328 3.9987C5.3328 4.70594 5.61375 5.38422 6.11385 5.88432C6.61395 6.38441 7.29223 6.66536 7.99947 6.66536ZM5.3328 8.16536C4.65936 8.16548 4.00939 8.41277 3.50618 8.86032C3.00296 9.30786 2.68151 9.92454 2.6028 10.5934L2.16947 14.2734C2.15391 14.4051 2.19132 14.5376 2.27346 14.6417C2.3556 14.7459 2.47575 14.8131 2.60747 14.8287C2.73919 14.8443 2.8717 14.8069 2.97585 14.7247C3.07999 14.6426 3.14724 14.5224 3.1628 14.3907L3.59614 10.7107C3.63555 10.3711 3.77373 10.0506 3.99356 9.78885C4.21338 9.52708 4.50518 9.33556 4.8328 9.23803V12.0334C4.8328 12.6327 4.8328 13.132 4.88614 13.528C4.94214 13.9467 5.06614 14.3247 5.37014 14.628C5.67347 14.932 6.05147 15.056 6.47014 15.112C6.86614 15.1654 7.36614 15.1654 7.9648 15.1654H8.03414C8.63347 15.1654 9.1328 15.1654 9.52947 15.112C9.94747 15.056 10.3255 14.932 10.6295 14.628C10.9335 14.324 11.0561 13.9467 11.1128 13.528C11.1661 13.132 11.1661 12.6327 11.1661 12.0334V9.23803C11.4938 9.3354 11.7857 9.52677 12.0056 9.78843C12.2255 10.0501 12.3639 10.3705 12.4035 10.71L12.8368 14.39C12.8425 14.4568 12.8616 14.5217 12.8929 14.5809C12.9242 14.6402 12.967 14.6925 13.0189 14.7349C13.0709 14.7772 13.1307 14.8087 13.1951 14.8274C13.2594 14.8462 13.3268 14.8518 13.3933 14.844C13.4599 14.8362 13.5242 14.8151 13.5824 14.7819C13.6406 14.7488 13.6916 14.7043 13.7322 14.651C13.7729 14.5978 13.8025 14.5369 13.8192 14.4721C13.8359 14.4072 13.8394 14.3396 13.8295 14.2734L13.3961 10.5934C13.3174 9.92454 12.996 9.30786 12.4928 8.86032C11.9896 8.41277 11.3396 8.16548 10.6661 8.16536H5.3328Z" fill="#FF1E0F"/>
</svg>
