<svg width="32" height="32" viewBox="0 0 32 32" fill="none" xmlns="http://www.w3.org/2000/svg">
<path d="M16 0C12.8355 0 9.74207 0.938383 7.11088 2.69649C4.4797 4.45459 2.42894 6.95344 1.21793 9.87706C0.00693255 12.8007 -0.309921 16.0177 0.307443 19.1214C0.924806 22.2251 2.44866 25.0761 4.6863 27.3137C6.92394 29.5513 9.77486 31.0752 12.8786 31.6926C15.9823 32.3099 19.1993 31.9931 22.1229 30.7821C25.0466 29.5711 27.5454 27.5203 29.3035 24.8891C31.0616 22.2579 32 19.1645 32 16C31.9955 11.7579 30.3084 7.69085 27.3088 4.69124C24.3092 1.69163 20.2421 0.00447972 16 0ZM15.3846 7.38461C15.7498 7.38461 16.1067 7.49289 16.4103 7.69575C16.7139 7.8986 16.9505 8.18693 17.0902 8.52427C17.23 8.86162 17.2665 9.23282 17.1953 9.59093C17.1241 9.94905 16.9482 10.278 16.69 10.5362C16.4319 10.7944 16.1029 10.9702 15.7448 11.0414C15.3867 11.1127 15.0155 11.0761 14.6781 10.9364C14.3408 10.7967 14.0525 10.56 13.8496 10.2564C13.6467 9.95284 13.5385 9.5959 13.5385 9.23077C13.5385 8.74114 13.733 8.27156 14.0792 7.92534C14.4254 7.57912 14.895 7.38461 15.3846 7.38461ZM17.2308 24.6154C16.5779 24.6154 15.9518 24.356 15.4902 23.8944C15.0286 23.4328 14.7692 22.8067 14.7692 22.1538V16C14.4428 16 14.1298 15.8703 13.8989 15.6395C13.6681 15.4087 13.5385 15.0956 13.5385 14.7692C13.5385 14.4428 13.6681 14.1298 13.8989 13.8989C14.1298 13.6681 14.4428 13.5385 14.7692 13.5385C15.4221 13.5385 16.0482 13.7978 16.5098 14.2594C16.9714 14.7211 17.2308 15.3472 17.2308 16V22.1538C17.5572 22.1538 17.8702 22.2835 18.1011 22.5143C18.3319 22.7451 18.4615 23.0582 18.4615 23.3846C18.4615 23.711 18.3319 24.0241 18.1011 24.2549C17.8702 24.4857 17.5572 24.6154 17.2308 24.6154Z" fill="#F9C80E"/>
</svg>
